<svg xmlns="http://www.w3.org/2000/svg" xmlns:xlink="http://www.w3.org/1999/xlink" width="28" height="28" viewBox="0 0 28 28">
  <defs>
    <clipPath id="clip-path">
      <rect id="사각형_370" data-name="사각형 370" width="28" height="28" fill="#242424"/>
    </clipPath>
  </defs>
  <g id="그룹_41" data-name="그룹 41" transform="translate(-273 -3448)">
    <g id="마스크_그룹_265" data-name="마스크 그룹 265" transform="translate(273 3448)" clip-path="url(#clip-path)">
      <g id="layer1" transform="translate(0.016 0)">
        <path id="패스_277" data-name="패스 277" d="M2.667,32.135c-.023-.023-.046-3.632-.046-8.064v-8l-.48-1.622c-.411-1.371-.48-1.645-.411-1.69.091-.091,25.47-8.749,25.721-8.772a.27.27,0,0,1,.274.069,20.185,20.185,0,0,1,.959,2.878c.046.3.046.388-.023.434-.046.046-5.574,1.964-12.312,4.294S4.083,15.916,4.061,15.939s5.756.046,12.883.069l12.929.023V32.158l-13.592.023C8.812,32.181,2.667,32.158,2.667,32.135Zm4.409-17.84c.594-.228,1.1-.434,1.119-.457s-2.056-2.079-2.1-2.079c-.069,0-2.1.731-2.1.754,0,.046,1.942,2.216,1.964,2.216S6.482,14.546,7.076,14.294Zm4.591-1.668a7.633,7.633,0,0,0,1.051-.411c0-.069-1.8-2.033-1.873-2.056s-1.919.5-1.987.548a23.165,23.165,0,0,0,1.713,2.307A9.773,9.773,0,0,0,11.667,12.627Zm5.14-1.736c.548-.206.982-.411.982-.411,0-.023-1.439-1.69-1.736-2.01-.069-.069-.206-.023-1.119.274a6.24,6.24,0,0,0-1.051.388c0,.046,1.873,2.147,1.919,2.147C15.8,11.256,16.259,11.1,16.807,10.891Zm5.231-1.668a10.533,10.533,0,0,0,1.1-.32c0-.046-1.85-2.216-1.942-2.261a3.328,3.328,0,0,0-.891.274c-.457.16-.845.3-.891.3-.274,0-.228.069.594,1.211.457.617.845,1.119.868,1.119C20.919,9.5,21.444,9.383,22.038,9.223Zm4.523-1.53c.548-.206,1.005-.388,1.005-.388,0-.046-2.01-2.193-2.056-2.216-.069-.023-2.056.571-2.056.594,0,.046,2.033,2.353,2.079,2.353Z" transform="translate(-1.707 -3.984)" fill="#242424"/>
      </g>
    </g>
    <text id="_8" data-name="8" transform="translate(285 3471)" fill="#fff" font-size="8" font-family="SpoqaHanSansNeo-Medium, Spoqa Han Sans Neo" font-weight="500"><tspan x="0" y="0">8</tspan></text>
  </g>
</svg>
