<svg xmlns="http://www.w3.org/2000/svg" xmlns:xlink="http://www.w3.org/1999/xlink" width="28" height="28" viewBox="0 0 28 28">
  <defs>
    <clipPath id="clip-path">
      <rect id="사각형_374" data-name="사각형 374" width="28" height="28" transform="translate(0 -0.428)" fill="#242424"/>
    </clipPath>
  </defs>
  <g id="그룹_37" data-name="그룹 37" transform="translate(-273 -3606)">
    <g id="마스크_그룹_269" data-name="마스크 그룹 269" transform="translate(273 3606.428)" clip-path="url(#clip-path)">
      <g id="layer1" transform="translate(0.016 -0.192)">
        <path id="패스_281" data-name="패스 281" d="M2.667,31.227c-.023-.022-.046-3.515-.046-7.8V15.686l-.48-1.57c-.411-1.326-.48-1.592-.411-1.636.091-.088,25.47-8.467,25.721-8.489a.276.276,0,0,1,.274.066,19.1,19.1,0,0,1,.959,2.785c.046.287.046.376-.023.42-.046.044-5.574,1.9-12.312,4.156S4.083,15.531,4.061,15.553s5.756.044,12.883.066l12.929.022V31.249l-13.592.022C8.812,31.271,2.667,31.249,2.667,31.227ZM7.076,13.962c.594-.221,1.1-.42,1.119-.442s-2.056-2.012-2.1-2.012c-.069,0-2.1.707-2.1.73,0,.044,1.942,2.144,1.964,2.144S6.482,14.205,7.076,13.962Zm4.591-1.614a7.782,7.782,0,0,0,1.051-.4c0-.066-1.8-1.967-1.873-1.99s-1.919.486-1.987.531a22.483,22.483,0,0,0,1.713,2.233A10,10,0,0,0,11.667,12.348Zm5.14-1.68c.548-.2.982-.4.982-.4,0-.022-1.439-1.636-1.736-1.945-.069-.066-.206-.022-1.119.265a6.369,6.369,0,0,0-1.051.376c0,.044,1.873,2.078,1.919,2.078C15.8,11.022,16.259,10.867,16.807,10.668Zm5.231-1.614a10.8,10.8,0,0,0,1.1-.309c0-.044-1.85-2.144-1.942-2.189a3.414,3.414,0,0,0-.891.265c-.457.155-.845.287-.891.287-.274,0-.228.066.594,1.172.457.6.845,1.083.868,1.083C20.919,9.32,21.444,9.209,22.038,9.054Zm4.523-1.481c.548-.2,1.005-.376,1.005-.376,0-.044-2.01-2.122-2.056-2.144-.069-.022-2.056.553-2.056.575,0,.044,2.033,2.277,2.079,2.277Z" transform="translate(-1.707 -3.984)" fill="#242424"/>
      </g>
    </g>
    <text id="_12" data-name="12" transform="translate(283 3629)" fill="#fff" font-size="8" font-family="SpoqaHanSansNeo-Medium, Spoqa Han Sans Neo" font-weight="500"><tspan x="0" y="0">12</tspan></text>
  </g>
</svg>
