<?xml version="1.0" encoding="utf-8"?>
<!-- Generator: Adobe Illustrator 25.0.1, SVG Export Plug-In . SVG Version: 6.00 Build 0)  -->
<svg version="1.1" id="Layer_1" xmlns="http://www.w3.org/2000/svg" xmlns:xlink="http://www.w3.org/1999/xlink" x="0px" y="0px"
	 viewBox="0 0 143 161" style="enable-background:new 0 0 143 161;" xml:space="preserve">
<style type="text/css">
	.Drop_x0020_Shadow{fill:none;}
	.Outer_x0020_Glow_x0020_5_x0020_pt{fill:none;}
	.Blue_x0020_Neon{fill:none;stroke:#8AACDA;stroke-width:7;stroke-linecap:round;stroke-linejoin:round;}
	.Chrome_x0020_Highlight{fill:url(#SVGID_1_);stroke:#FFFFFF;stroke-width:0.3629;stroke-miterlimit:1;}
	.Jive_GS{fill:#FFDD00;}
	.Alyssa_GS{fill:#A6D0E4;}
	.st0{fill:none;}
	.st1{fill:#030303;stroke:#030303;stroke-width:2.026713e-02;}
	.st2{fill-rule:evenodd;clip-rule:evenodd;}
	.st3{fill:#0A0B09;}
</style>
<linearGradient id="SVGID_1_" gradientUnits="userSpaceOnUse" x1="-63" y1="-49" x2="-63" y2="-50">
	<stop  offset="0" style="stop-color:#656565"/>
	<stop  offset="0.618" style="stop-color:#1B1B1B"/>
	<stop  offset="0.6292" style="stop-color:#545454"/>
	<stop  offset="0.9831" style="stop-color:#3E3E3E"/>
</linearGradient>
<g id="layer1">
	<path d="M11,139.1c-0.1-0.1-0.2-15.9-0.2-35.3V68.8l-2.1-7.1c-1.8-6-2.1-7.2-1.8-7.4C7.3,53.9,118.4,16,119.5,15.9
		c0.6-0.1,0.9,0,1.2,0.3c0.6,0.6,3.9,10.8,4.2,12.6c0.2,1.3,0.2,1.7-0.1,1.9c-0.2,0.2-24.4,8.6-53.9,18.8S17.2,68.1,17.1,68.2
		c-0.1,0.1,25.2,0.2,56.4,0.3l56.6,0.1v35.3v35.3l-59.5,0.1C37.9,139.3,11,139.2,11,139.1z M30.3,61c2.6-1,4.8-1.9,4.9-2
		c0.1-0.1-9-9.1-9.2-9.1c-0.3,0-9.2,3.2-9.2,3.3c0,0.2,8.5,9.7,8.6,9.7C25.5,62.9,27.7,62.1,30.3,61z M50.4,53.7
		C53,52.8,55,52,55,51.9c0-0.3-7.9-8.9-8.2-9c-0.3-0.1-8.4,2.2-8.7,2.4c-0.2,0.2,7.2,10.1,7.5,10.1C45.8,55.4,47.9,54.7,50.4,53.7z
		 M72.9,46.1c2.4-0.9,4.3-1.8,4.3-1.8c0-0.1-6.3-7.4-7.6-8.8c-0.3-0.3-0.9-0.1-4.9,1.2c-2.6,0.8-4.6,1.6-4.6,1.7
		c0,0.2,8.2,9.4,8.4,9.4C68.5,47.7,70.5,47,72.9,46.1z M95.8,38.8c2.6-0.7,4.8-1.3,4.8-1.4c0-0.2-8.1-9.7-8.5-9.9
		c-0.2-0.1-1.5,0.3-3.9,1.2c-2,0.7-3.7,1.3-3.9,1.3c-1.2,0-1,0.3,2.6,5.3c2,2.7,3.7,4.9,3.8,4.9C90.9,40,93.2,39.5,95.8,38.8z
		 M115.6,32.1c2.4-0.9,4.4-1.7,4.4-1.7c0-0.2-8.8-9.6-9-9.7c-0.3-0.1-9,2.5-9,2.6c0,0.2,8.9,10.3,9.1,10.3
		C111.1,33.6,113.2,32.9,115.6,32.1z"/>
</g>
</svg>
