<?xml version="1.0" encoding="utf-8"?>
<!-- Generator: Adobe Illustrator 25.0.1, SVG Export Plug-In . SVG Version: 6.00 Build 0)  -->
<svg version="1.1" id="Layer_1" xmlns="http://www.w3.org/2000/svg" xmlns:xlink="http://www.w3.org/1999/xlink" x="0px" y="0px"
	 viewBox="0 0 172.9 47.3" style="enable-background:new 0 0 172.9 47.3;" xml:space="preserve">
<style type="text/css">
	.Drop_x0020_Shadow{fill:none;}
	.Outer_x0020_Glow_x0020_5_x0020_pt{fill:none;}
	.Blue_x0020_Neon{fill:none;stroke:#8AACDA;stroke-width:7;stroke-linecap:round;stroke-linejoin:round;}
	.Chrome_x0020_Highlight{fill:url(#SVGID_1_);stroke:#FFFFFF;stroke-width:0.3629;stroke-miterlimit:1;}
	.Jive_GS{fill:#FFDD00;}
	.Alyssa_GS{fill:#A6D0E4;}
	.st0{fill:none;}
	.st1{fill:#030303;stroke:#030303;stroke-width:2.026713e-02;}
	.st2{fill-rule:evenodd;clip-rule:evenodd;}
	.st3{fill:#0A0B09;}
</style>
<linearGradient id="SVGID_1_" gradientUnits="userSpaceOnUse" x1="-608.0267" y1="-151.5634" x2="-608.0267" y2="-152.5634">
	<stop  offset="0" style="stop-color:#656565"/>
	<stop  offset="0.618" style="stop-color:#1B1B1B"/>
	<stop  offset="0.6292" style="stop-color:#545454"/>
	<stop  offset="0.9831" style="stop-color:#3E3E3E"/>
</linearGradient>
<path d="M172.7,6.2c-7,3.9-29.4,20.1-55.1,4.2c-4.9-3-5.5-5.1-13.9-8.1C90.8-2.3,77.9,0.7,65.2,5.5C34.4,17.2,26.4,21.4,1.9,16
	c-0.6-0.1-1.2-0.3-1.9-0.4c0,0.4,0,0.8,0,1.2c0.7,0.3,1.5,0.4,2.3,0.6c0,0.1,0,0.3,0,0.4c-0.8-0.2-1.5-0.4-2.3-0.5
	c0,2.8,0,5.6,0,8.5c0,0.2,0,0.5,0.2,0.6c0.7,0.3,1.4,0.4,2.1,0.8c0,0.1,0,0.3,0.1,0.4C1.6,27.3,0.8,27,0,26.8C0,27.2,0,27.6,0,28
	c0.3,0.2,0.7,0.3,1,0.5c22.3,7.7,29.9,6.6,64.6-2.9c11.2-3.1,21.9-4.1,33-0.7c3.4,1,6.7,2.7,9.7,4.6c1.8,1.1,3.2,2.5,4.8,3.9
	c6.9,6.2,14.6,11.1,23.7,13c2.1,0.4,4.2,0.8,6.4,0.9c1.2,0.1,2.4,0.1,3.6,0.1c0.5,0,0.9-0.1,1.4-0.1c3.9-0.2,7.7-1,11.5-2.1
	c6-1.7,12.3-4.9,13.2-5.5C172.9,5.1,173,7.1,172.7,6.2z M26.7,19.5c0.5-0.1,1-0.1,1.5-0.1c0,0.2,0,0.4,0,0.6c-0.5,0-1,0.1-1.5,0.2
	C26.7,19.8,26.7,19.7,26.7,19.5z M23,19.7c0.5,0,0.9,0,1.4,0c0,0.2,0,0.4,0,0.5c-0.5,0-1,0.1-1.5,0.1C22.9,20.1,22.9,19.9,23,19.7z
	 M19.2,19.8c0.5,0,1,0,1.4,0c0,0.2,0,0.4,0,0.6c-0.5,0-1,0-1.5,0C19.2,20.2,19.2,20,19.2,19.8z M15.3,19.6c0.5,0,0.9,0,1.4,0.1
	c0,0.2,0.1,0.3,0.1,0.5c-0.5,0-1,0-1.4-0.1C15.3,20,15.3,19.7,15.3,19.6z M11.7,19.2c0.5,0,0.9,0,1.3,0.1c0,0.2,0,0.3,0,0.5
	c-0.5,0-0.9-0.1-1.4-0.2C11.7,19.5,11.7,19.4,11.7,19.2z M8.1,18.7c0.5,0,0.9,0.1,1.4,0.2c0,0.2,0,0.3,0,0.5
	c-0.5-0.1-0.9-0.2-1.4-0.3C8.1,19,8.1,18.8,8.1,18.7z M4.6,17.9C5,18,5.5,18.1,5.9,18.1c0,0.2,0,0.3,0,0.5c-0.5-0.1-0.9-0.2-1.4-0.3
	C4.6,18.2,4.6,18,4.6,17.9z M4.5,28.2c0-0.1,0-0.3,0.1-0.4c0.5,0,0.9,0.2,1.3,0.3c0,0.1,0,0.4,0,0.5C5.5,28.5,5,28.4,4.5,28.2z
	 M8.1,29.3c0-0.1,0-0.3,0-0.4c0.5,0,0.9,0.2,1.3,0.3c0,0.2,0,0.4,0,0.5C9,29.6,8.5,29.4,8.1,29.3z M11.5,30.2
	c0.1-0.1,0.1-0.3,0.2-0.4c0.4,0,0.9,0.2,1.3,0.3c0,0.2,0,0.3,0,0.5C12.5,30.4,12,30.4,11.5,30.2z M15.2,31c0-0.2,0-0.4,0-0.6
	c0.5,0.1,0.9,0.2,1.4,0.2c0,0.2,0.1,0.4,0.1,0.6C16.2,31.2,15.7,31.1,15.2,31z M19.2,31.6c0-0.2,0-0.3,0-0.5c0.5,0,1,0,1.4,0.1
	c0,0.2,0,0.4,0,0.6C20.2,31.7,19.7,31.7,19.2,31.6z M22.9,31.9c0-0.2,0-0.4,0-0.6c0.5,0,1,0,1.5,0c0,0.2,0,0.4,0,0.6
	C23.9,32,23.4,31.9,22.9,31.9z M26.7,31.9c0-0.2,0-0.4,0-0.6c0.5,0,1,0,1.5,0c0,0.2,0,0.4,0,0.6C27.7,31.9,27.2,31.9,26.7,31.9z
	 M28.3,21.4c0,2.8,0,5.6,0,8.4c-1.7,0.2-6.6,0.2-9.5-0.1C13.3,29,7.9,27.6,2.6,25.9c-0.2-0.1-0.3-0.1-0.5-0.3c-0.1-0.2,0-6.6,0-6.6
	C9.5,20.5,15.5,22.6,28.3,21.4z M87.2,2.1c0.5-0.1,1-0.1,1.5-0.1c0,0.4,0,0.7,0,1.1c-0.5,0-1,0-1.4,0C87,2.9,87.2,2.5,87.2,2.1z
	 M83.4,2.5c0.5-0.1,1-0.2,1.5-0.2c0,0.3,0,0.7,0,1c-0.5,0-1,0.1-1.5,0.1C83.4,3.2,83.4,2.9,83.4,2.5z M79.7,3.1
	c0.5-0.2,0.9-0.2,1.4-0.2c0,0.3,0,0.6,0,1c-0.5,0.1-1,0.2-1.4,0.2C79.7,3.8,79.7,3.5,79.7,3.1z M75.7,4c0.5-0.1,0.9-0.3,1.4-0.3
	c0,0.3,0,0.6,0,0.9c-0.5,0.2-1,0.2-1.4,0.4C75.7,4.7,75.7,4.4,75.7,4z M72,5c0.4-0.2,0.9-0.3,1.4-0.3c0,0.3,0,0.6,0,0.9
	c-0.5,0.1-1,0.2-1.4,0.3C72,5.6,72,5.3,72,5z M69.8,5.8c0,0.3,0,0.6,0,0.9c-0.5,0.2-0.9,0.3-1.4,0.5c0-0.3,0-0.6,0-0.9
	C68.9,6.1,69.3,5.9,69.8,5.8z M64.9,7.6c0.4-0.3,0.9-0.4,1.4-0.5c0,0.3,0,0.6,0,0.8c-0.5,0.2-0.9,0.3-1.4,0.5
	C64.8,8.2,64.8,7.9,64.9,7.6z M56.9,10.5c0.5-0.1,1-0.3,1.4-0.5c0,0.3,0,0.6,0,0.8c-0.5,0.2-1,0.3-1.4,0.5
	C56.9,11,56.9,10.7,56.9,10.5z M53.3,11.8c0.4-0.2,0.9-0.3,1.4-0.5c0,0.3,0,0.5,0,0.8c-0.5,0.2-0.9,0.3-1.4,0.5
	C53.3,12.3,53.3,12.1,53.3,11.8z M51.1,12.7c0,0.2,0,0.5,0,0.7c-0.5,0.2-0.9,0.3-1.4,0.5c0-0.2,0-0.5,0-0.7
	C50.2,12.9,50.7,12.8,51.1,12.7z M45.9,14.5c0.4-0.2,0.9-0.3,1.3-0.5c0,0.2,0,0.5,0,0.7c-0.5,0.2-0.9,0.3-1.4,0.5
	C45.9,14.9,45.9,14.7,45.9,14.5z M42.3,15.7c0.4-0.1,0.9-0.3,1.4-0.4c0,0.2,0,0.5,0,0.7c-0.5,0.1-0.9,0.3-1.4,0.4
	C42.3,16.1,42.3,15.9,42.3,15.7z M38.6,16.8c0.5-0.2,0.9-0.3,1.4-0.4c0,0.2,0,0.4,0,0.6c-0.5,0.1-1,0.3-1.4,0.4
	C38.6,17.3,38.6,17.1,38.6,16.8z M35,17.9c0.4-0.3,0.9-0.3,1.4-0.4c0,0.2,0,0.4,0,0.6c-0.5,0.1-1,0.2-1.5,0.4
	C34.9,18.3,34.9,18.1,35,17.9z M30.5,18.9c0.7-0.1,1.4-0.3,2.1-0.4c0,0.2,0,0.4,0,0.6c-0.7,0.1-1.4,0.3-2.1,0.4
	C30.3,19.3,30.4,19.1,30.5,18.9z M30.5,31.7c0-0.2,0-0.4,0-0.6c0.7-0.1,1.4-0.2,2.1-0.2c0,0.2,0,0.4,0,0.6
	C31.9,31.6,31.2,31.7,30.5,31.7z M34.9,31.1c0-0.2,0-0.4,0-0.6c0.4-0.3,1-0.2,1.4-0.2c0,0.2,0,0.4,0,0.6
	C35.9,31,35.4,31.1,34.9,31.1z M38.6,30.5c0-0.2,0-0.4,0-0.7c0.5-0.1,0.9-0.2,1.4-0.2c0,0.2,0,0.4,0,0.6
	C39.6,30.3,39.1,30.4,38.6,30.5z M42.3,29.7c0-0.2,0-0.5,0-0.7c0.4-0.1,0.9-0.3,1.4-0.3c0,0.2,0,0.4,0,0.7
	C43.2,29.5,42.8,29.6,42.3,29.7z M45.9,28.8c0-0.2,0-0.4,0-0.6c0.4-0.3,0.9-0.3,1.4-0.4c0,0.2,0,0.5,0,0.7
	C46.8,28.6,46.3,28.7,45.9,28.8z M49.7,27.8c0-0.2,0-0.5,0-0.7c0.5-0.1,0.9-0.3,1.4-0.4c0,0.2,0,0.5,0,0.7
	C50.7,27.6,50.2,27.7,49.7,27.8z M53.3,26.9c0-0.3,0-0.5,0-0.8c0.4-0.1,0.9-0.3,1.4-0.4c0,0.3,0,0.5,0,0.8
	C54.3,26.7,53.8,26.8,53.3,26.9z M56.9,25.9c0-0.3,0-0.5,0-0.8c0.4-0.1,0.9-0.3,1.4-0.4c0,0.3,0,0.5,0,0.8
	C57.9,25.7,57.4,25.8,56.9,25.9z M58,23.1c-5.3,1.5-19.1,5.5-25.6,6.2c0-2.9,0-5.7,0-8.6c1-0.4,2.3-0.6,4.4-1.2
	c3.6-0.9,7.3-2.1,11.1-3.4c0,0,10.7-3.7,10.7-3.7c0,3.4,0,6.8,0,10.1C58.5,22.9,58.3,23.1,58,23.1z M60.5,9.2c0.6-0.4,1.3-0.6,2-0.8
	c0,0.3,0,0.5,0,0.8c-0.7,0.2-1.3,0.5-2,0.7C60.5,9.7,60.5,9.5,60.5,9.2z M60.5,25c0-0.3,0-0.5,0-0.8c0.7-0.2,1.3-0.5,2-0.5
	c0,0.3,0,0.5,0,0.8C61.8,24.6,61.2,24.8,60.5,25z M64.8,23.8c0.1-0.3-0.2-0.8,0.2-0.9c0.4-0.2,0.8-0.3,1.2-0.3c0,0.3,0,0.6,0,0.8
	C65.8,23.6,65.3,23.7,64.8,23.8z M68.4,22.9c0-0.3,0-0.6,0-0.9c0.5-0.1,0.9-0.3,1.4-0.4c0,0.3,0,0.6,0,0.9
	C69.3,22.6,68.9,22.8,68.4,22.9z M72,22c0-0.3,0-0.6,0-0.9c0.5-0.1,0.9-0.2,1.4-0.2c0,0.3,0,0.6,0,0.9C73,21.8,72.5,21.9,72,22z
	 M77.2,21.2c-0.5,0-1,0.1-1.4,0.2c0-0.3,0-0.6,0-1c0.5-0.1,0.9-0.1,1.4-0.1C77.2,20.6,77.2,20.9,77.2,21.2z M79.7,20.9
	c0-0.3,0-0.7,0-1c0.5-0.1,0.9-0.2,1.4-0.2c0,0.3,0,0.7,0,1C80.7,20.8,80.2,20.9,79.7,20.9z M83.4,20.6c0-0.4,0-0.7,0-1.1
	c0.5,0,1,0,1.5,0c0,0.4,0,0.7,0,1.1C84.4,20.6,83.9,20.6,83.4,20.6z M87.2,20.6c0-0.3,0-0.7,0-1c0.5,0,1,0,1.5,0c0,0.4,0,0.7,0,1.1
	C88.2,20.7,87.7,20.7,87.2,20.6z M88.8,17.7c-2.5,0-6-0.3-13,0.9c-5.7,1-3.6,0.5-12.4,3c-0.3,0.1-0.7,0.2-1,0.3c0-0.6,0-10.2,0-10.6
	c0.4-0.4,0.6-0.3,4.7-1.9c5.2-2,12.2-3.6,18.6-4.1c0.6,0,1.3-0.2,1.9-0.1c0.4,0,0.7,0,1.1,0c0,0,0.2,0,0.2,0
	C88.8,9.3,88.9,13.5,88.8,17.7z M139.9,19.8c0.5,0,1,0,1.5,0c0,0.5,0,1.1,0,1.6c-0.5,0-1,0-1.5,0C139.9,20.8,139.9,20.3,139.9,19.8z
	 M136.3,19.6c0.5,0,0.9,0,1.4,0c0.1,0.5,0.1,1.1,0.1,1.6c-0.5-0.1-0.9-0.1-1.4-0.2C136.3,20.6,136.3,20.1,136.3,19.6z M132.7,18.9
	c0.4,0.1,0.9,0.2,1.3,0.2c0,0.5,0,1,0,1.6c-0.5-0.1-0.9-0.2-1.4-0.3C132.7,20,132.7,19.4,132.7,18.9z M129,18
	c0.4,0.1,0.9,0.2,1.3,0.3c0,0.5,0,1,0,1.5c-0.4-0.1-0.9-0.3-1.3-0.4C129,19,129,18.5,129,18z M125.8,16.9c0.4,0.2,0.8,0.3,1.2,0.5
	c0.1,0.5,0,1,0,1.5c-0.4-0.2-0.8-0.3-1.2-0.5C125.8,17.8,125.8,17.4,125.8,16.9z M122.7,15.5c0.4,0.2,0.8,0.3,1.1,0.5
	c0,0.5,0,1,0,1.5c-0.4-0.2-0.8-0.4-1.1-0.5C122.7,16.5,122.7,16,122.7,15.5z M119.8,14c0.3,0.2,0.7,0.3,1,0.6c0.1,0.5,0,1,0.1,1.4
	c-1.1-0.6-1.1-0.5-1.1-0.9C119.8,14.8,119.8,14.4,119.8,14z M116.5,12.1c0.5,0.3,1,0.5,1.4,0.9c0.1,0.4,0,0.9,0,1.3
	c-0.5-0.3-0.9-0.6-1.4-0.9C116.5,13,116.5,12.5,116.5,12.1z M114,10.3c0.3,0.2,0.7,0.3,0.8,0.7c0,0.4,0,0.8,0,1.2
	c-0.3-0.2-0.6-0.4-0.8-0.6C113.9,11.2,114,10.7,114,10.3z M111.5,9.2c0-0.3,0-0.6,0-0.9c0.3,0.2,0.5,0.4,0.8,0.6
	c0.1,0.4,0.1,0.9,0.1,1.3C112,10,111.4,9.8,111.5,9.2z M108.8,6.7c0.4,0.1,0.7,0.3,1,0.5c0,0.4,0,0.9,0,1.3c-0.4-0.2-0.7-0.4-1-0.6
	C108.8,7.5,108.8,7.1,108.8,6.7z M105.5,5.2c0.4,0.1,0.8,0.2,1.1,0.5c0.1,0.4,0,0.8,0,1.2c-0.4-0.2-0.8-0.3-1.1-0.5
	C105.5,6,105.5,5.6,105.5,5.2z M102.3,3.9c0.4,0.1,0.8,0.3,1.2,0.4c0,0.4,0,0.9,0,1.3c-0.4-0.1-0.8-0.3-1.2-0.4
	C102.3,4.8,102.3,4.3,102.3,3.9z M98.9,3c0.4,0.1,0.9,0.2,1.3,0.3c0,0.4,0,0.8,0,1.2c-0.4-0.1-0.9-0.2-1.4-0.3
	C98.9,3.8,98.9,3.4,98.9,3z M95.4,2.4c0.5,0,0.9,0.1,1.4,0.2c0,0.4,0,0.8,0,1.1c-0.5-0.1-0.9-0.1-1.4-0.2
	C95.4,3.2,95.4,2.8,95.4,2.4z M91,2.1c0.7,0,1.3,0,2,0c0,0.4,0,0.8,0,1.1c-0.7,0-1.3-0.1-2-0.1C91,2.8,91,2.5,91,2.1z M90.9,20.9
	c0-0.4,0-0.8,0-1.2c0.7,0.1,1.4,0.3,2.1,0.3c0,0.4,0,0.8,0,1.2C92.3,21.1,91.6,21,90.9,20.9z M96.8,22c-0.5-0.1-0.9-0.2-1.4-0.3
	c0-0.4,0-0.7,0-1.1c0.5,0,1,0.1,1.4,0.2C96.8,21.3,96.8,21.7,96.8,22z M100.2,23.2c-0.4-0.2-0.9-0.3-1.3-0.5c0-0.4,0-0.8,0-1.2
	c0.4,0.2,0.9,0.3,1.3,0.5C100.2,22.3,100.2,22.7,100.2,23.2z M103.5,24.5c-0.4-0.2-0.9-0.3-1.2-0.6c0-0.4,0-0.8,0-1.2
	c0.4,0.2,0.8,0.4,1.2,0.5C103.6,23.7,103.5,24.1,103.5,24.5z M106.7,26.1c-0.4-0.2-0.8-0.4-1.1-0.6c0-0.4,0-0.8,0-1.2
	c0.4,0.1,0.8,0.3,1.1,0.6C106.7,25.3,106.7,25.7,106.7,26.1z M109.8,28.1c-0.4-0.2-0.7-0.5-1-0.7c0-0.4,0-0.8,0-1.2
	c1.1,0.6,1,0.7,1,1C109.8,27.5,109.8,27.8,109.8,28.1z M112.3,30.2c-0.3-0.3-0.6-0.5-0.8-0.8c0-0.4,0-0.8,0-1.2
	c0.3,0.2,0.5,0.5,0.8,0.7C112.4,29.4,112.3,29.8,112.3,30.2z M114.8,32.5c-0.3-0.2-0.6-0.5-0.8-0.8c-0.1-0.4,0-0.8,0-1.2
	c0.3,0.2,0.6,0.4,0.8,0.7C114.9,31.6,114.8,32,114.8,32.5z M115,15c0,4.7,0,9.4,0,14.1c-2.9-2.5-3.7-3.9-8.7-6.5
	c-4-2.2-8.3-3.6-12.8-4.4c-0.3,0-0.6-0.1-0.6-0.5c0-4.2,0-8.3,0-12.5c0.9-0.1,1.8,0.1,2.7,0.3c4.5,0.6,9,2.2,13,4.3
	c2.7,1.4,3.8,2.7,6.1,4.4C114.9,14.4,115,14.7,115,15z M117.9,35c-0.5-0.4-1-0.7-1.4-1.1c-0.1-0.4,0-0.9,0-1.3
	c0.4,0.2,0.7,0.5,1.1,0.8C118,33.7,117.9,33.5,117.9,35z M120.9,37c-0.3-0.2-0.7-0.4-1-0.7c-0.1-0.5,0-0.9,0-1.4
	c0.3,0.2,0.7,0.4,0.9,0.6C121,36,120.9,36.5,120.9,37z M123.9,38.8c-0.4-0.2-0.8-0.4-1.1-0.7c0-0.5,0-0.9,0-1.4
	c0.4,0.2,0.7,0.4,1,0.6C123.9,37.9,123.9,38.4,123.9,38.8z M127,40.5c-0.4-0.2-0.8-0.4-1.2-0.6c0-0.5,0-1,0-1.5
	c0.4,0.2,0.8,0.3,1.2,0.6C127,39.5,127,40,127,40.5z M130.3,41.9c-0.4-0.2-0.9-0.3-1.3-0.5c0-0.5,0-1,0-1.5c0.4,0.2,0.9,0.3,1.3,0.5
	C130.3,40.9,130.3,41.4,130.3,41.9z M134,43.1c-0.5-0.1-0.9-0.3-1.4-0.4c0-0.5,0-1,0-1.5c0.4,0.1,0.9,0.2,1.3,0.4
	C134.1,42.1,134,42.6,134,43.1z M137.7,43.9c-0.5-0.1-1-0.2-1.5-0.3c0-0.5,0-1.1,0-1.6c0.5,0.1,0.9,0.2,1.4,0.2
	C137.7,42.8,137.7,43.4,137.7,43.9z M141.4,44.4c-0.5,0-1-0.1-1.5-0.1c0-0.5,0-1.1,0-1.6c0.5,0,1,0.1,1.5,0.1
	C141.4,43.3,141.4,43.9,141.4,44.4z M141.5,40.4c-1,0-7.6-0.5-14.7-3.7c-2.9-1.3-5.6-3-8.2-4.7c-0.4-0.2-0.8-0.6-0.8-1.1
	c0-4.8,0-9.6,0-14.4c3,1.7,9.3,5.8,18.6,6.9c0.4,0,5,0.4,5,0.3C141.5,24.5,141.5,39.6,141.5,40.4z M169.7,11
	c0.4-0.3,0.8-0.5,1.2-0.7c0,0.6,0.1,1.1,0,1.7c-0.4,0.3-0.8,0.5-1.1,0.7C169.7,12.1,169.7,11.5,169.7,11z M166.3,12.8
	c0.4-0.2,0.8-0.4,1.2-0.6c0,0.6,0,1.1,0,1.7c-0.4,0.2-0.8,0.5-1.2,0.7C166.3,13.9,166.3,13.4,166.3,12.8z M162.9,14.5
	c0.4-0.2,0.9-0.4,1.3-0.6c0,0.5,0.1,1.1,0,1.7c-0.4,0.2-0.8,0.4-1.3,0.6C162.9,15.6,162.9,15.1,162.9,14.5z M159.2,16.2
	c0.4-0.3,0.9-0.4,1.4-0.6c0,0.5,0,1.1,0,1.6c-0.5,0.2-0.9,0.4-1.4,0.6C159.2,17.2,159.1,16.7,159.2,16.2z M155.6,17.4
	c0.4-0.1,0.9-0.3,1.3-0.4c0,0.5,0,1.1,0,1.6c-0.5,0.2-0.9,0.3-1.4,0.5C155.6,18.5,155.6,17.9,155.6,17.4z M151.9,18.5
	c0.5-0.2,0.9-0.3,1.4-0.3c0,0.5,0,1,0,1.6c-0.5,0.1-1,0.2-1.4,0.4C151.9,19.5,151.9,19,151.9,18.5z M148.1,19.2c0.5,0,1-0.2,1.5-0.3
	c0,0.5,0,1.1,0,1.6c-0.5,0.1-1,0.2-1.5,0.2C148.1,20.3,148.1,19.7,148.1,19.2z M143.7,19.8c0.7-0.2,1.4-0.1,2.1-0.1c0,0.5,0,1,0,1.5
	c-0.7,0.1-1.4,0.1-2.1,0.2C143.7,20.8,143.6,20.3,143.7,19.8z M145.8,44.6c-0.7,0-1.4,0-2.2,0c0-0.5,0-1.1,0-1.6c0.7,0,1.4,0,2.2,0
	C145.8,43.5,145.8,44,145.8,44.6z M149.7,44.4c-0.5,0-1,0.1-1.4,0.1c0-0.5,0-1,0-1.6c0.5-0.2,0.9-0.1,1.4-0.1
	C149.7,43.3,149.7,43.8,149.7,44.4z M153.4,43.8c-0.5,0.1-1,0.2-1.4,0.2c0-0.5,0-1.1,0-1.6c0.5-0.1,0.9-0.2,1.4-0.2
	C153.4,42.7,153.4,43.3,153.4,43.8z M157,43c-0.5,0.1-0.9,0.2-1.4,0.3c0-0.6,0-1.1,0-1.7c0.4-0.1,0.9-0.2,1.3-0.4
	C157,41.9,157,42.5,157,43z M160.6,42c-0.4,0.1-0.9,0.3-1.3,0.4c0-0.6,0-1.1,0-1.7c0.4-0.2,0.9-0.3,1.3-0.4
	C160.6,40.9,160.6,41.4,160.6,42z M164.2,40.7c-0.4,0.2-0.9,0.3-1.3,0.5c0-0.6,0-1.1,0-1.7c0.4-0.2,0.9-0.3,1.3-0.5
	C164.2,39.6,164.2,40.1,164.2,40.7z M166.3,39.8c0-0.6,0-1.1,0-1.7c0.4-0.2,0.8-0.4,1.2-0.5c0,0.6,0,1.1,0,1.7
	C167.2,39.5,166.8,39.6,166.3,39.8z M170.8,37.7c-0.4,0.2-0.8,0.4-1.2,0.6c0-0.6,0-1.2,0-1.8c0.4-0.2,0.8-0.4,1.2-0.7
	C170.8,36.5,170.9,37.1,170.8,37.7z M171,32.6c0,0.3-0.1,0.7-0.4,0.8c-5.7,2.8-11.3,5.2-17.9,6.4c-1.9,0.3-5.3,0.8-7.1,0.7
	c0-0.5-0.1-16.3,0-16.8c0.1-0.1,0.3-0.1,0.4-0.2c8.7-0.8,17.4-4.5,24.8-8.9C171,15.1,171,13.8,171,32.6z"/>
</svg>
