<?xml version="1.0" encoding="utf-8"?>
<!-- Generator: Adobe Illustrator 25.0.1, SVG Export Plug-In . SVG Version: 6.00 Build 0)  -->
<svg version="1.1" id="Layer_1" xmlns="http://www.w3.org/2000/svg" xmlns:xlink="http://www.w3.org/1999/xlink" x="0px" y="0px"
	 viewBox="0 0 234.7 210.2" style="enable-background:new 0 0 234.7 210.2;" xml:space="preserve">
<style type="text/css">
	.Drop_x0020_Shadow{fill:none;}
	.Outer_x0020_Glow_x0020_5_x0020_pt{fill:none;}
	.Blue_x0020_Neon{fill:none;stroke:#8AACDA;stroke-width:7;stroke-linecap:round;stroke-linejoin:round;}
	.Chrome_x0020_Highlight{fill:url(#SVGID_1_);stroke:#FFFFFF;stroke-width:0.3629;stroke-miterlimit:1;}
	.Jive_GS{fill:#FFDD00;}
	.Alyssa_GS{fill:#A6D0E4;}
	.st0{fill:none;}
	.st1{fill:#030303;stroke:#030303;stroke-width:2.026713e-02;}
	.st2{fill-rule:evenodd;clip-rule:evenodd;}
	.st3{fill:#0A0B09;}
</style>
<linearGradient id="SVGID_1_" gradientUnits="userSpaceOnUse" x1="-317.3391" y1="-473.8117" x2="-317.3391" y2="-474.8117">
	<stop  offset="0" style="stop-color:#656565"/>
	<stop  offset="0.618" style="stop-color:#1B1B1B"/>
	<stop  offset="0.6292" style="stop-color:#545454"/>
	<stop  offset="0.9831" style="stop-color:#3E3E3E"/>
</linearGradient>
<g id="g823" transform="matrix(1.3333333,0,0,-1.3333333,0,880)">
	<path id="path925" class="st2" d="M18.3,630.8c0.9-0.2,1.7-0.4,2.6-0.6c1,3.7,2.7,7.1,4.7,9c-0.9,0.2-1.7,0.4-2.6,0.6
		C20.9,637.9,19.3,634.5,18.3,630.8 M14.6,631.6c0.9-0.2,1.7-0.4,2.6-0.6c1,3.7,2.7,7.1,4.7,9c-0.9,0.2-1.7,0.4-2.6,0.6
		C17.3,638.7,15.6,635.3,14.6,631.6 M11,632.5c0.9-0.2,1.7-0.4,2.6-0.6c1,3.7,2.7,7.1,4.7,9c-0.9,0.2-1.7,0.4-2.6,0.6
		C13.7,639.5,12,636.1,11,632.5 M7.4,633.3l2.6-0.6c1,3.7,2.7,7.1,4.7,9l-2.6,0.6C10,640.4,8.4,637,7.4,633.3 M21.9,630l2.6-0.6
		c1,3.7,2.7,7.1,4.7,9l-2.6,0.6C24.6,637,22.9,633.6,21.9,630 M45.1,615.2c5.8,0.5,8.5,12.3,3.5,15.3
		C45.7,626.8,44.1,619.8,45.1,615.2 M47.1,611.3c7.3-1.7,12.3,20.2,5,21.8C44.8,634.8,39.8,613,47.1,611.3 M60,623.8
		c-0.5-3.5-1.4-7.2-2.8-10.3l16.4-8.7l4.4,19L60,623.8z M157.7,630.8c-0.9-0.2-1.7-0.4-2.6-0.6c-1,3.7-2.7,7.1-4.7,9
		c0.9,0.2,1.7,0.4,2.6,0.6C155.1,637.9,156.7,634.5,157.7,630.8 M161.4,631.6c-0.9-0.2-1.7-0.4-2.6-0.6c-1,3.7-2.7,7.1-4.7,9
		c0.9,0.2,1.7,0.4,2.6,0.6C158.7,638.7,160.4,635.3,161.4,631.6 M165,632.5c-0.9-0.2-1.7-0.4-2.6-0.6c-1,3.7-2.7,7.1-4.7,9
		c0.9,0.2,1.7,0.4,2.6,0.6C162.3,639.5,164,636.1,165,632.5 M168.6,633.3l-2.6-0.6c-1,3.7-2.7,7.1-4.7,9l2.6,0.6
		C166,640.4,167.6,637,168.6,633.3 M154.1,630l-2.6-0.6c-1,3.7-2.7,7.1-4.7,9l2.6,0.6C151.4,637,153.1,633.6,154.1,630 M130.9,615.2
		c-5.8,0.5-8.5,12.3-3.5,15.3C130.2,626.8,131.9,619.8,130.9,615.2 M128.9,611.3c-7.3-1.7-12.3,20.2-5,21.8
		C131.2,634.8,136.2,613,128.9,611.3 M116,623.8c0.5-3.5,1.4-7.2,2.8-10.3l-16.4-8.7l-4.4,19L116,623.8z M163.5,645l-24.3-5.6
		l4.2-26.9l-5.8,26.6l-4.3-9.8c-0.1,0.3-0.2,0.6-0.4,0.9l2.6,8.4l-6.3-1.5L117.7,660l-14.1-8.1l13.4-16.2c0.9,2,2.2,3.4,4.2,3.8
		c1.1,0.3,2.2,0.1,3.3-0.3c-0.6,0.1-1.2,0-1.9-0.1c-11.3-2.6-3.5-36.4,7.8-33.8c0.6,0.1,1.2,0.4,1.7,0.7c-0.8-0.8-1.7-1.4-2.8-1.7
		c-1.9-0.4-3.8,0.2-5.4,1.6l-5-20.4l16.3-1.1l0.4,25.5l4.7,1.1l4.9-5.8l-1.4,6.6l3.8,0.9V566l3-1.1h-3h-1.8v-18.8h-3.9l-13.4-34.3
		H127l-4.5-9.5h9.8l2.9,9.5H134h-4.4l4.6,0.7l10.3,26.4l-4-27.1h-1.1l-2.1-9.5h8.9l0.7,9.5h-1.1h-4l4.1,0.7l4.3,29.4h2.5l11.5-29.4
		l4.6-0.7h-4.4h-1.2l2.9-9.5h9.8l-4.5,9.5h-1.2l-13.4,34.3h-3.6v18.8h-1.8v48.2h-2.4l20.6,4.7C178.8,620,172.5,647.1,163.5,645
		 M12.5,645l24.3-5.6l-4.2-26.9l5.8,26.6l4.3-9.8c0.1,0.3,0.2,0.6,0.4,0.9l-2.6,8.4l6.3-1.5L58.3,660l14.1-8.1L59,635.7
		c-0.9,2-2.2,3.4-4.2,3.8c-1.1,0.3-2.2,0.1-3.3-0.3c0.6,0.1,1.2,0,1.9-0.1c11.3-2.6,3.5-36.4-7.8-33.8c-0.6,0.1-1.2,0.4-1.7,0.7
		c0.8-0.8,1.7-1.4,2.8-1.7c1.9-0.4,3.8,0.2,5.4,1.6l5-20.4l-16.3-1.1L40.6,610l-4.7,1.1l-4.9-5.8l1.4,6.6l-3.8,0.9V566l-3-1.1h3h1.8
		v-18.8h3.9l13.4-34.3H49l4.5-9.5h-9.8l-2.9,9.5H42h4.4l-4.6,0.7l-10.3,26.4l4-27.1h1.1l2.1-9.5h-8.9l-0.7,9.5h1.1h4l-4.1,0.7
		l-4.3,29.4h-2.5l-11.5-29.4l-4.6-0.7h4.4h1.2l-2.9-9.5H0l4.5,9.5h1.2l13.4,34.3h3.6v18.8h1.8v48.2h2.4l-20.6,4.7
		C-2.8,620,3.5,647.1,12.5,645"/>
</g>
</svg>
