<?xml version="1.0" encoding="utf-8"?>
<!-- Generator: Adobe Illustrator 25.0.1, SVG Export Plug-In . SVG Version: 6.00 Build 0)  -->
<svg version="1.1" id="Layer_1" xmlns="http://www.w3.org/2000/svg" xmlns:xlink="http://www.w3.org/1999/xlink" x="0px" y="0px"
	 viewBox="0 0 152.1 146.5" style="enable-background:new 0 0 152.1 146.5;" xml:space="preserve">
<style type="text/css">
	.Drop_x0020_Shadow{fill:none;}
	.Outer_x0020_Glow_x0020_5_x0020_pt{fill:none;}
	.Blue_x0020_Neon{fill:none;stroke:#8AACDA;stroke-width:7;stroke-linecap:round;stroke-linejoin:round;}
	.Chrome_x0020_Highlight{fill:url(#SVGID_1_);stroke:#FFFFFF;stroke-width:0.3629;stroke-miterlimit:1;}
	.Jive_GS{fill:#FFDD00;}
	.Alyssa_GS{fill:#A6D0E4;}
	.st0{fill:none;}
	.st1{fill:#030303;stroke:#030303;stroke-width:2.026713e-02;}
	.st2{fill-rule:evenodd;clip-rule:evenodd;}
	.st3{fill:#0A0B09;}
</style>
<linearGradient id="SVGID_1_" gradientUnits="userSpaceOnUse" x1="-66.9858" y1="-262.5389" x2="-66.9858" y2="-263.5389">
	<stop  offset="0" style="stop-color:#656565"/>
	<stop  offset="0.618" style="stop-color:#1B1B1B"/>
	<stop  offset="0.6292" style="stop-color:#545454"/>
	<stop  offset="0.9831" style="stop-color:#3E3E3E"/>
</linearGradient>
<g>
	<path class="st0" d="M75.9,55.4c-0.7-0.6-1.3-1.2-2-1.8c-0.3-0.4-0.7-0.7-1-1.1l0,0c-1.5-1.6-2.7-3.3-3.8-5.1
		c-0.1-0.2-0.2-0.4-0.4-0.6c-0.5,0.1-1,0.2-1.5,0.2c-0.2,0-0.4,0.1-0.5,0.1c-1,0.1-2.1,0.4-3.1,0.5c-0.2,0.9-0.6,1.7-0.9,2.5
		c-0.2,0.3-0.3,0.6-0.4,0.9c-0.4,0.7-0.7,1.5-1.2,2.2c0,0.1-0.2,0.3-0.2,0.3c-0.3,0.6-0.8,1.2-1.1,1.8
		C65.2,55.4,70.5,55.5,75.9,55.4z"/>
	<path class="st0" d="M58.8,95.8c0.2,0,0.4,0,0.7,0c0-9.2,0-18.5,0-27.7c-0.2,0-0.4,0-0.7,0C58.8,77.3,58.8,86.5,58.8,95.8z"/>
	<path class="st0" d="M58.3,68L58.3,68c-0.3,0-0.5,0-0.7,0c0,2.4,0,4.8,0,7.3c0,6.8,0,13.6,0,20.4c0.2,0,0.3,0,0.5,0l0.2,0
		c0.1-0.1,0.1-0.3,0.1-0.4C58.2,86.3,58.3,77.1,58.3,68z"/>
	<path class="st0" d="M56.9,68c-0.2,0-0.4,0-0.7,0c0,9.2,0,18.5,0,27.7l0.2,0c0.1,0,0.2,0,0.2,0l0.2,0.1c0-0.1,0.1-0.3,0.1-0.4
		C56.9,86.3,56.9,77.1,56.9,68z"/>
	<path class="st0" d="M65,88.9c0-4,0-8,0-11.9c0-3,0-5.9,0-8.9l0-0.1c-0.2,0-0.4,0-0.6,0l0,0c-0.1,2.2,0,4.3,0,6.5
		c0,6.7,0,13.4,0,20c0,0.4,0,0.8,0,1.2l0.2,0l0.2,0l0.2,0C65,93.5,65,91.2,65,88.9z"/>
	<path class="st0" d="M55,68c0,9.2,0,18.5,0,27.7c0.1,0,0.2,0,0.3,0.1c0,0,0.1,0,0.2,0c0.1,0,0.2-0.1,0.2-0.1c0-9.2,0-18.4,0-27.6
		H55z"/>
	<path class="st0" d="M62.4,68c-0.2,0-0.4,0-0.7,0c0,9.2,0,18.5,0,27.7c0.2,0,0.4,0,0.5,0l0.1,0C62.4,86.5,62.4,77.3,62.4,68z"/>
	<path class="st0" d="M63.7,68L63.7,68c-0.3,0-0.5,0-0.7,0.1c0.1,0.7,0,1.3,0,2c0,8.6,0,17.1,0,25.7c0.2,0,0.3,0,0.5,0l0.2,0
		c0-0.2,0.1-0.4,0.1-0.7C63.7,86.1,63.8,77.1,63.7,68z"/>
	<path class="st0" d="M51.7,68.1c-3.7,0-7.4,0-11.1,0c0,9.2,0,18.5,0,27.7c0.1,0,0.2,0,0.3,0c0.1,0,0.2,0,0.2,0l0.1,0
		c0-3.7,0-7.4,0-11c2.6,0,5.2,0,7.7,0c0-0.2,0-0.4,0-0.6c-2.6-0.1-5.2,0-7.8,0c0-0.2,0-0.5,0-0.7c2.6,0,5.1,0,7.7,0
		c0-0.2,0-0.4,0-0.6l-0.1,0c-0.7,0-1.4,0-2.2,0c-1.8,0-3.7,0-5.5,0c0-0.2,0-0.4,0-0.7c2.6,0,5.2,0,7.8,0c0-0.2,0-0.4,0-0.6
		c-2.2,0-4.3,0-6.5,0c-0.4,0-0.8,0-1.3,0c0-0.2,0-0.5,0-0.7c2.6,0,5.2,0,7.8,0c0-0.2,0-0.4,0-0.7c-2.6,0-5.2,0-7.8,0
		c0-0.2,0-0.4,0-0.6c2.6,0,5.2,0,7.7,0c0-0.2,0-0.4,0-0.6c-2.6,0-5.2,0-7.7,0l0-0.1c0-1.7,0-3.4,0-5.1c3.3,0,6.6,0,9.9,0
		c0.2,0,0.4,0,0.6-0.1l-0.1-0.2c0,0,0-0.1,0.1-0.2l0-0.2c-0.3-0.1-0.7,0-1,0c-3.2,0-6.3,0-9.5,0c0-0.2,0-0.4,0-0.7c3.5,0,7,0,10.4,0
		l0-0.2c0-0.2,0-0.3,0-0.5c-3.5,0-7,0-10.4,0c0-0.2,0-0.4,0-0.6c3.5,0,6.9,0,10.4,0c0-0.2,0-0.4,0-0.6l-0.1,0c-3.4,0-6.9,0-10.3,0
		c0-0.2,0-0.4,0-0.6c3.5,0,7,0,10.4,0c0-0.2,0-0.3,0-0.5l0-0.2c-3.5,0-7,0-10.5,0c0.1-0.2,0-0.4,0-0.7c3.5,0,7,0,10.5,0l-0.1-0.2
		c0-0.1,0.1-0.2,0.1-0.2C51.7,68.2,51.7,68.1,51.7,68.1z"/>
	<path class="st0" d="M36.7,68.1c0,9.2,0,18.5,0,27.7l0.2,0c0.2,0,0.3,0,0.5,0c0-7.3,0-14.5,0-21.8c0-2,0-3.9,0-5.9
		C37.2,68,36.9,68.1,36.7,68.1z"/>
	<path class="st0" d="M53.7,95.8c0.2,0,0.3,0,0.5,0l0.2,0c0-9.2,0-18.5,0-27.7c-0.2,0-0.4,0-0.6,0C53.7,77.3,53.7,86.5,53.7,95.8z"
		/>
	<path class="st0" d="M38,68c0,0.1,0,0.2,0,0.2c0,9.2,0,18.3,0,27.5c0.2,0,0.3,0,0.5,0l0.2,0c0-9.2,0-18.5,0-27.7
		C38.5,68.1,38.2,68,38,68z"/>
	<path class="st0" d="M36.1,73.4c0-1.8,0-3.6,0-5.3c-0.2,0-0.4,0-0.6,0l0,0c0,9.2,0,18.5,0,27.7l0.1,0c0.2,0,0.3,0,0.5,0
		c0.1-0.6,0-1.2,0-1.8C36.1,87.1,36.1,80.2,36.1,73.4z"/>
	<path class="st0" d="M39.3,68c0,9.2,0,18.4,0,27.7c0.1,0,0.2,0.1,0.2,0.1c0,0,0.1,0,0.2,0l0.2-0.1c0-9.2,0-18.4,0-27.7
		C39.7,68,39.5,68,39.3,68z"/>
	<path class="st0" d="M66.2,68c-0.2,0-0.4,0-0.6,0l-0.1,0c0,9,0,18.1,0,27.1c0,0.2,0,0.4,0,0.7c0.2,0,0.4,0,0.7,0
		C66.2,86.5,66.3,77.3,66.2,68z"/>
	<path class="st0" d="M46,49.6c1-0.6,1.9-1.4,2.6-2.3c0.1,0,0.2-0.1,0.2-0.2h0c1.4-1.8,2.5-4,2.8-6.3c0.2-1.2,0.2-2.4,0-3.6
		c0-0.2,0-0.5-0.1-0.7c-0.6-3-2.3-5.9-4.7-7.7c0,0-0.1-0.1-0.2-0.1c0,0-0.1-0.1-0.2-0.1c-0.1-0.2-0.3-0.2-0.4-0.3
		c-3.6-2.4-8.4-2.8-12.3-1c-3.2,1.4-5.8,4.3-7,7.6c-0.9,2.7-0.9,5.6,0,8.2c1,3,3.2,5.6,6.1,7.2c2.3,1.3,5,1.8,7.7,1.4
		c0.1,0,0.3,0,0.4-0.1C42.7,51.3,44.5,50.6,46,49.6z M44,33.7c0.8-0.1,1.6,0.4,2,1.1c0.1,0.5,0.2,0.9,0.1,1.4c0,0.1-0.1,0.2-0.1,0.3
		c0,0.1-0.1,0.1-0.1,0.2c-0.3,0.5-0.7,0.8-1.2,1c-0.4,0.1-0.7,0.1-1.1,0c-0.7-0.2-1.4-0.8-1.6-1.6C41.8,35.1,42.8,33.8,44,33.7z
		 M41.6,41.9c0.2-0.2,0.4-0.4,0.6-0.6c0.5-0.3,1.1-0.4,1.6-0.3c0.7,0.2,1.3,0.8,1.5,1.5c0.2,0.7-0.1,1.5-0.6,2
		c-0.5,0.5-1.3,0.7-1.9,0.5c-0.8-0.2-1.4-0.9-1.5-1.6C41.2,42.9,41.4,42.4,41.6,41.9z M30.8,38c-0.4-1.1,0.4-2.3,1.5-2.6
		c0.9-0.2,2,0.3,2.4,1.2c0.5,1-0.1,2.4-1.2,2.8C32.4,39.8,31.1,39.1,30.8,38z M37.7,44.9c-0.3,0.9-1.2,1.6-2.2,1.5
		c-1-0.1-1.9-1-1.9-2.1c0-1.1,0.9-2.1,2-2.1c0.9,0,1.8,0.7,2.1,1.5C37.8,44.2,37.8,44.5,37.7,44.9z M37.4,33.9
		c-1.2-0.1-2.1-1.5-1.7-2.6c0.2-0.6,0.7-1.2,1.3-1.4c1.3-0.5,2.8,0.6,2.7,2C39.8,33.1,38.6,34.2,37.4,33.9z"/>
	<path class="st0" d="M113.8,95.8c0.2,0,0.4,0,0.7,0c-1.6-9.2-3.1-18.5-4.7-27.7c-0.2,0-0.4,0-0.6,0c-3,6.8-6,13.7-9,20.5
		c-2.9-6.8-5.8-13.7-8.8-20.5c-0.2,0-0.5,0-0.7,0c3,7,6,14.1,9.1,21.1c0.1,0.3-0.2,0.6-0.3,0.9C96.3,82.7,93.1,75.4,90,68h-0.7
		c3.3,7.6,6.6,15.3,9.8,22.9c-0.1,0.3-0.2,0.5-0.4,0.8c-0.6-1.4-1.2-2.8-1.7-4.2c-2.8-6.5-5.5-13-8.3-19.5c-0.3,0-0.5,0-0.8,0
		c3.5,8.2,7,16.4,10.5,24.6c-0.1,0.3-0.2,0.5-0.4,0.8c-3.6-8.5-7.2-16.9-10.9-25.4c-0.2,0-0.5,0-0.7,0c3.7,8.7,7.5,17.5,11.2,26.2
		c-0.1,0.2-0.2,0.5-0.4,0.7c-3.8-9-7.7-18-11.5-26.9c-0.2,0-0.5,0-0.7,0c-1.6,9.2-3.1,18.5-4.7,27.7c0.2,0,0.4,0,0.7,0
		c1.5-8.8,3-17.7,4.5-26.5c0.2,0.3,0.4,0.7,0.5,1.1c-1.4,8.5-2.9,16.9-4.3,25.4c0.2,0,0.4,0,0.6,0c1.4-8.1,2.8-16.3,4.1-24.4
		c0.2,0.4,0.5,0.8,0.4,1.2C85.6,80.3,84.3,88,83,95.8c0.2,0,0.4,0,0.7,0c1-6.2,2.1-12.5,3.2-18.7c0.2-1.1,0.3-2.3,0.6-3.4
		c0.1,0.5,0.5,0.9,0.4,1.4c-1.2,6.9-2.3,13.9-3.5,20.8c0.2,0,0.4,0,0.6,0c1.1-6.7,2.3-13.4,3.4-20.1c0.1,0.4,0.4,0.9,0.4,1.4
		c-1,6.2-2.1,12.5-3.1,18.7c0.2,0,0.4,0,0.6,0c1-5.9,2-11.9,3-17.8c0.2,0.4,0.4,0.8,0.5,1.2c2.4,5.5,4.7,11.1,7.1,16.6
		c0.2,0,0.5,0,0.7,0c3.8-8.8,7.7-17.7,11.6-26.5c0.1,0.4,0.3,0.8,0.2,1.2c-3.7,8.5-7.4,16.9-11.1,25.4l0.7,0l10.7-24.3l0.2,1.3
		L99.7,95.8l0,0c0.1,0,0.3,0,0.6,0l9.7-22l0.2,1.3l-9.1,20.7c0.4,0,0.7,0,0.8,0c1.8-4.2,3.7-8.4,5.5-12.6c1-2.3,2-4.7,3.1-7
		c0,0.4,0.2,0.8,0.1,1.2c-2.7,6.1-5.4,12.2-8,18.3c0.2,0,0.5,0,0.7,0c2.5-5.7,5-11.5,7.6-17.2C111.9,84.3,112.8,90,113.8,95.8z"/>
	<path class="st0" d="M78.6,93.8c-3.7,0-7.4,0-11,0c0-0.2,0-0.4,0-0.5c3.5,0,7,0,10.4,0c0.3,0,0.7,0,1,0l0-0.2c0-0.1,0-0.2,0-0.2
		l0-0.2c-0.3-0.1-0.7,0-1,0c-3.2,0-6.5,0-9.7,0c-0.3,0-0.5,0-0.8-0.1c0.1-0.2,0.1-0.3,0-0.5l0.1-0.1c3.8,0,7.6,0,11.4,0l0-0.2
		c0-0.1,0-0.2,0-0.2l0-0.2c-0.6-0.1-1.2,0-1.8,0c-3.2,0-6.5,0-9.7,0c0-0.2,0-0.4,0-0.6c3.8,0,7.6,0,11.4,0l0-0.1c0-0.2,0-0.3,0-0.5
		c-3.8,0-7.6,0-11.4,0l0,0c0-7.3,0-14.6,0-22c-0.2,0-0.4,0-0.7,0c0,9.2,0,18.5,0,27.7l0.1,0c3.8,0,7.6,0,11.4,0c0.2,0,0.4,0,0.6,0
		c0-0.2,0-0.3,0-0.5l0-0.2c-3.8,0-7.6,0-11.4,0c0-0.2,0-0.4,0-0.6c3.8,0,7.6,0,11.4,0c0-0.2,0-0.3,0-0.5l0-0.2
		C78.9,93.8,78.7,93.8,78.6,93.8z"/>
	<path class="st0" d="M115.1,95.8c0.2,0,0.4,0,0.6,0c-1.6-9.2-3.1-18.5-4.6-27.7c-0.2,0-0.4,0-0.7,0C112,77.3,113.6,86.5,115.1,95.8
		z"/>
	<path class="st0" d="M114.3,68c1.6,9.2,3.1,18.5,4.7,27.7c0.2,0,0.4,0,0.7,0c-1.6-9.2-3.1-18.5-4.7-27.7
		C114.8,68,114.6,68,114.3,68z"/>
	<path class="st0" d="M84.1,41.6c1.5,1.6,3.4,2.8,5.4,3.7l0.1,0c0,0,0.1,0.1,0.1,0.2c1.1,0.3,2.3,0.8,3.5,0.8c1.5,0.2,2.9,0.2,4.4,0
		c0.3,0,0.6-0.1,0.9-0.1c0.2,0,0.3-0.1,0.5-0.1c1.1-0.3,2.2-0.7,3.3-1.2c0.1-0.1,0.3-0.1,0.4-0.2l0,0c1.2-0.7,2.4-1.4,3.3-2.4
		c0.3-0.3,0.7-0.6,0.9-0.9c0.1-0.1,0.2-0.2,0.3-0.3c0.3-0.3,0.6-0.7,0.9-1.1c0.2-0.3,0.5-0.6,0.6-0.9c0,0,1.1-1.9,1.3-2.7
		c0,0,0.5-1.3,0.7-2c1-3.9,0.4-8.3-1.7-11.8c-0.1-0.1-0.1-0.2-0.2-0.3c-0.1-0.2-0.3-0.4-0.4-0.6c-0.3-0.6-0.8-1.1-1.2-1.6
		c0,0-0.7-0.7-0.7-0.7c-0.4-0.5-0.9-0.8-1.3-1.2c-0.3-0.2-1.3-1-1.5-1c-1.2-0.7-2.4-1.3-3.7-1.7c-0.7-0.2-1.3-0.4-2-0.5
		c-0.3-0.1-0.7-0.1-1-0.1c-1.8-0.1-3.7-0.1-5.5,0.4l0,0.1c-0.3,0-0.5,0-0.7,0.1c-1.1,0.3-2.2,0.8-3.2,1.4l0,0
		c-0.4,0.2-0.9,0.5-1.3,0.8c-0.4,0.2-0.7,0.5-1.1,0.8c-0.4,0.3-0.8,0.6-1.1,1.1c0,0-0.1,0.1-0.2,0.1l-0.1,0.1
		c-0.1,0.1-0.2,0.2-0.2,0.3c-0.3,0.2-0.5,0.5-0.7,0.8c-0.5,0.5-0.9,1.2-1.3,1.9c-2.3,3.8-2.8,8.5-1.5,12.7
		C81.1,37.6,82.4,39.8,84.1,41.6C84.1,41.6,84.1,41.6,84.1,41.6z M100.2,24.9C100.2,24.9,100.2,24.9,100.2,24.9
		c0.6-0.5,1.4-0.8,2.2-0.6c0.9,0.1,1.7,0.9,2,1.8c0.1,0.4,0.1,0.7,0.1,1.1c-0.1,0.7-0.5,1.3-1.1,1.7c-0.9,0.6-2.3,0.5-3.1-0.2
		c0,0,0,0,0,0C99.1,27.8,99.1,25.9,100.2,24.9z M98.4,35.5c0.1-0.8,0.6-1.6,1.3-2c0.8-0.4,1.8-0.4,2.6,0.1c0.6,0.3,0.9,0.9,1.2,1.5
		c0,0.4,0.1,0.8,0,1.2c-0.2,0.7-0.6,1.3-1.3,1.6c-0.8,0.5-1.8,0.4-2.6,0c-0.5-0.3-0.8-0.7-1.1-1.1C98.5,36.4,98.4,36,98.4,35.5z
		 M91.4,21.6c0.1-0.8,0.7-1.5,1.4-1.9c0.1,0,0.2-0.1,0.3-0.1c0.6-0.3,1.3-0.1,1.9,0.1c0.5,0.3,1,0.7,1.2,1.3
		c0.4,0.8,0.3,1.8-0.3,2.6c-0.6,0.9-1.8,1.3-2.8,0.9C92,24.1,91.2,22.8,91.4,21.6z M93.1,35.4C93.1,35.4,93.1,35.4,93.1,35.4
		c0.2,0.2,0.3,0.3,0.5,0.5c0,0,0,0,0,0c0.4,0.5,0.5,1.1,0.5,1.8c-0.1,1-0.9,2-1.9,2.2c-0.8,0.2-1.7,0-2.3-0.5
		c-0.8-0.6-1.1-1.7-0.8-2.7c0.2-0.8,0.9-1.5,1.7-1.7C91.5,34.7,92.4,34.9,93.1,35.4z M87.1,26.4c0.7-0.2,1.5-0.2,2.2,0.3
		c0.8,0.5,1.3,1.4,1.2,2.4c-0.1,1.3-1.3,2.4-2.7,2.3c-1.3,0-2.5-1.2-2.4-2.6C85.3,27.7,86.1,26.7,87.1,26.4z"/>
	<path class="st0" d="M113,68c1.6,9.2,3.1,18.5,4.7,27.7c0.2,0,0.4,0,0.7,0c-1.6-9.2-3.1-18.5-4.7-27.7C113.5,68,113.2,68,113,68z"
		/>
	<path class="st0" d="M111.7,68c1.6,9.2,3.1,18.5,4.7,27.7c0.2,0,0.4,0,0.7,0c-1.6-9.2-3.1-18.5-4.7-27.7
		C112.2,68,111.9,68,111.7,68z"/>
	<path d="M93.2,24.4c1,0.4,2.2-0.1,2.8-0.9c0.5-0.7,0.6-1.7,0.3-2.6c-0.2-0.6-0.7-1-1.2-1.3c-0.6-0.2-1.3-0.3-1.9-0.1
		c-0.1,0-0.2,0.1-0.3,0.1c-0.7,0.4-1.3,1.1-1.4,1.9C91.2,22.8,92,24.1,93.2,24.4z"/>
	<path d="M100.2,28.7C100.2,28.7,100.2,28.7,100.2,28.7c0.9,0.8,2.2,0.9,3.1,0.2c0.6-0.4,1-1,1.1-1.7c0-0.4,0-0.8-0.1-1.1
		c-0.3-0.9-1.1-1.6-2-1.8c-0.8-0.2-1.6,0.1-2.1,0.6c0,0,0,0,0,0C99.1,25.9,99.1,27.8,100.2,28.7z"/>
	<path d="M87.8,31.4c1.3,0.1,2.6-1,2.7-2.3c0.1-0.9-0.4-1.9-1.2-2.4c-0.6-0.4-1.5-0.5-2.2-0.3c-1,0.3-1.8,1.3-1.7,2.4
		C85.3,30.1,86.5,31.3,87.8,31.4z"/>
	<path d="M37,30c-0.6,0.2-1.1,0.7-1.3,1.4c-0.4,1.2,0.5,2.5,1.7,2.6c1.2,0.2,2.4-0.8,2.4-2C39.8,30.5,38.3,29.5,37,30z"/>
	<path d="M99.6,38c0.8,0.5,1.8,0.5,2.6,0c0.6-0.3,1-1,1.3-1.6c0.1-0.4,0.1-0.8,0-1.2c-0.2-0.6-0.6-1.2-1.2-1.5
		c-0.8-0.5-1.8-0.5-2.6-0.1c-0.7,0.4-1.2,1.1-1.3,2c-0.1,0.4,0.1,0.9,0.1,1.3C98.9,37.3,99.2,37.7,99.6,38z"/>
	<path d="M43.7,37.9c0.4,0,0.7,0,1.1,0c0.5-0.2,0.9-0.5,1.2-1c0-0.1,0.1-0.1,0.1-0.2c0-0.1,0.1-0.2,0.1-0.3c0.1-0.5,0-1-0.1-1.4
		c-0.4-0.7-1.2-1.2-2-1.1c-1.2,0-2.2,1.3-1.9,2.5C42.3,37,42.9,37.6,43.7,37.9z"/>
	<path d="M89,36.6c-0.3,0.9,0,2,0.8,2.7c0.6,0.5,1.5,0.7,2.3,0.5c1-0.2,1.8-1.2,1.9-2.2c0.1-0.6-0.1-1.3-0.5-1.8c0,0,0,0,0,0
		c-0.1-0.2-0.3-0.3-0.5-0.5c0,0,0,0,0,0c-0.6-0.5-1.5-0.7-2.3-0.4C89.9,35.2,89.3,35.8,89,36.6z"/>
	<path d="M34.7,36.6c-0.4-0.9-1.4-1.4-2.4-1.2c-1.1,0.2-1.9,1.5-1.5,2.6c0.3,1.1,1.6,1.8,2.7,1.4C34.6,39,35.2,37.6,34.7,36.6z"/>
	<path d="M42.9,45.1c0.7,0.2,1.5,0,1.9-0.5c0.5-0.5,0.7-1.3,0.6-2c-0.2-0.7-0.8-1.3-1.5-1.5c-0.6-0.1-1.1,0-1.6,0.3
		c-0.2,0.2-0.4,0.4-0.6,0.6c-0.3,0.5-0.4,1-0.3,1.5C41.5,44.3,42.1,44.9,42.9,45.1z"/>
	<path d="M35.7,42.3c-1.1,0-2.1,1-2,2.1c0,1.1,0.9,2,1.9,2.1c1,0.1,1.9-0.6,2.2-1.5c0-0.3,0-0.7,0-1C37.4,43,36.6,42.3,35.7,42.3z"
		/>
	<path d="M106,126.1c-0.3-1.3-0.6-2.7-0.8-4c0,0,0.1-0.1,0.1-0.1c0.8,0,1.5,0,2.3,0c0-1.8,0-3.5,0-5.3c0,0,0-0.1,0-0.2
		c0-1.7,0-3.5,0-5.2c-8.3,0-16.6,0-24.9,0c-3.4,0.1-6.8,0-10.2,0.1c-4.6,0-9.1,0-13.7,0c-0.8,0-1.5,0-2.3-0.1c0,3.6,0,7.2,0,10.8
		c0.9,0,1.9,0,2.8,0c0,0.1,0,0.2-0.1,0.3c0,0,0,0,0,0c-1.2,5.9-2.4,11.7-3.6,17.6c-0.4,2.2-0.9,4.4-1.3,6.6h4.1
		c1.6-8.2,3.3-16.3,4.9-24.5c1.9,0,3.7,0,5.6,0c0.1,0.6,0.1,1.2,0.1,1.9c0,0.9,0.2,1.7,0.1,2.6c-0.2,0.9-0.5,1.8-0.7,2.7
		c-1.6,5.8-3.1,11.6-4.7,17.3H68c0.7-2.5,1.3-5,2-7.4c0.1,0.9,0.1,1.8,0.2,2.8c0,0.5,0.1,1,0.1,1.5c0,0.1,0,0.3,0,0.4l0,0.2
		c0.1,0.9,0.1,1.8,0.2,2.7h4.8c0,0,0-0.1,0-0.2c0-0.2,0-0.4,0-0.6c-0.2-2.5-0.3-5.1-0.5-7.6c0-0.1,0-0.3,0-0.5
		c-0.1-1.2-0.2-2.4-0.2-3.7c0-0.2,0-0.4,0-0.7c0-0.4-0.1-0.9-0.1-1.3c-0.1-0.9-0.1-1.8-0.2-2.7c-0.1-1.4-0.2-2.8-0.3-4.2
		c0-0.3,0-0.6,0.1-0.9c0.2-0.7,0.4-1.5,0.6-2.2c2,0,4,0,6.1,0c0.7-0.1,1.5-0.1,2.2,0c0.7,0.1,1.5,0,2.2,0c1.1,0,2.2,0,3.3,0
		c0,1.4-0.1,2.7-0.2,4.1l0,0.1c0,0.3,0,0.5,0,0.8c-0.1,2.8-0.3,5.5-0.4,8.3c0,0.4,0,0.8-0.1,1.2c-0.2,3.2-0.3,6.4-0.5,9.5l0,0.2
		c0,0.1,0,0.2,0,0.3h4.8c0-1,0.1-2,0.2-3c0-0.1,0-0.3,0-0.3c0-0.1,0-0.2,0-0.3c0-0.5,0.1-1.1,0.1-1.6c0.1-2.5,0.3-5.1,0.4-7.6
		c1.2,4.3,2.3,8.6,3.5,12.9h4.2c-1.8-6.5-3.5-13-5.3-19.6c-0.1-0.2-0.1-0.4-0.2-0.6c-0.4-1.4-0.8-2.9-1.2-4.3c0.5-0.1,1,0,1.6,0
		c0.8,0,1.5,0,2.3,0c1.1,0,2.2,0,3.4,0c0.3,1.4,0.5,2.7,0.8,4.1l0,0.1l0,0.2c1.4,6.7,2.7,13.4,4.1,20.1h4.1
		c-1.4-6.6-2.7-13.3-4-19.9C106,126.4,106,126.3,106,126.1z"/>
	<path d="M152.1,88.8c0-0.6,0-1.2,0-1.8c0-1.4,0-2.7,0-4.1c0-0.6,0-1.1,0-1.7h0v-3.8c0,0,0,0,0,0c0-0.4,0-0.9,0-1.3v-2.6
		c0-0.2,0-0.3,0-0.5v-3c0-0.3,0-0.6,0-0.9c0-4.1,0-8.2,0-12.3l0-0.1c0-1.5,0-3,0-4.5c-0.7,0.4-1.4,0.9-2.1,1.3
		c-0.1,0.1-0.2,0.1-0.3,0.2c-1.8,1.1-3.6,2.2-5.4,3.3c-1.9,1.1-3.7,2.3-5.6,3.4c-0.8,0.5-1.6,1-2.5,1.5c-2.8,0.1-5.6,0-8.4,0
		c-0.5,0-1,0-1.5,0c-0.8,0-1.6,0-2.5,0c0,2.4,0,4.7,0,7.1c0,0.1,0,0.2,0,0.2c0,0.7,0,1.3,0,2c-0.1,0-0.2,0.1-0.3,0.1
		c0.1,0,0.2-0.1,0.3-0.1c0,1.2,0,2.4,0,3.6c0,0.9,0,1.8,0,2.7v0.1c0,0.7,0,1.3,0,2v0.1c0,2.1,0,4.1,0,6.2c0.9,0,1.9,0,2.8,0
		c0.8,0,1.5,0,2.3,0c1.3,0,2.7,0,4,0h0c0.7,0,1.5,0,2.2,0c0.5,0,1.1-0.1,1.5,0.2c1.5,0.9,3.1,1.8,4.5,2.8c0.1,0.1,0.3,0.1,0.4,0.2
		c0.2,0.1,0.4,0.2,0.6,0.4c0,0,0.1,0.1,0.2,0.1c0.5,0.3,1,0.6,1.5,0.8l0.3,0.2c0,0,0,0,0,0c0,0,0.1,0.1,0.1,0.1l3.4,2.1l0,0
		c1.5,0.9,3,1.8,4.5,2.7c0-2.1,0-4.2,0-6.4C152.1,89,152.1,88.9,152.1,88.8z"/>
	<path d="M124.3,44.6c0.3-0.5,0.5-1.1,0.7-1.7c0.1-0.3,0.2-0.5,0.3-0.8c0.7-1.9,1.2-3.8,1.5-5.8c0,0,0-0.1,0-0.2
		c0.9-5.6,0.2-11.3-1.9-16.6c0,0-0.1-0.1-0.1-0.2c-0.3-0.6-0.6-1.2-0.8-1.8c-0.4-0.8-0.8-1.5-1.2-2.3c-1.1-1.8-2.4-3.6-3.8-5.2
		c-2.8-3-6.2-5.5-9.9-7.3C101.8-0.5,93-0.9,85.4,1.8l-0.1,0c-4.8,1.7-9.1,4.6-12.5,8.3c-1.4,1.6-2.7,3.3-3.8,5.1
		c-0.4,0.7-0.8,1.5-1.2,2.2c-0.3,0.6-0.6,1.3-0.9,1.9l-0.1,0.2c-0.8,2.1-1.5,4.3-1.8,6.5c-1.3,0.3-2.6,0.5-3.9,0.7
		c-0.6-1-1.3-2-2-2.9c0,0,0,0,0,0c-0.5-0.5-0.9-1-1.3-1.5c-0.9-1-1.9-1.9-3-2.8l-0.1-0.1c-1.4-1.1-2.9-2-4.5-2.8
		c-0.1-0.1-0.3-0.1-0.4-0.2c-0.7-0.3-1.4-0.6-2.1-0.9c-0.7-0.2-1.3-0.4-2-0.6c-4.5-1.3-9.4-1.2-13.9,0c-4,1.1-7.7,3.2-10.7,6
		c-3.1,2.9-5.5,6.5-6.8,10.5c-1.6,4.6-1.9,9.6-0.8,14.3c1.1,4.8,3.5,9.2,7,12.7c3.3,3.3,7.5,5.7,12.1,6.8c0,1,0,1.9,0,2.9
		c-1.7,0-3.5,0-5.2,0c0-0.1,0-0.2-0.1-0.3c-2-0.7-3.9-1.5-5.9-2.2c-0.3-0.1-0.5-0.1-0.8-0.1c-1.3,0-2.5,0-3.8,0
		c0.7,1.5,1.4,3,2.1,4.4c0.2,0.5,0.5,1,0.7,1.5l0,0c0.8,1.4,1.4,2.9,2.1,4.3c0.7,1.4,1.3,2.7,2,4.1c0.8-0.2,1.7-0.5,2.5-0.7
		c0.4-0.7,0.9-1.5,1.3-2.2l0.1-0.1c0.2-0.1,0.4-0.1,0.6-0.1c1.3,0,2.6,0,3.8,0c0.2,0,0.4,0,0.6,0.1c0,10.8,0,21.6,0,32.4
		c2.8,0,5.5,0,8.3,0c-0.3,2.4-0.7,4.8-1,7.2c-6.1,1.2-12.2,2.3-18.3,3.5l-0.1,0c-0.5,0.1-1,0.3-1.5,0.2c-1.3-0.6-2.6-1.3-3.9-2
		c-0.2-0.1-0.3-0.2-0.5-0.1c-5.1,1-10.1,1.9-15.2,2.9l-0.1,0c-0.2,0-0.3,0.1-0.5,0.1c0.3,3,0.7,5.9,1.1,8.9c3.6-0.7,7.2-1.4,10.8-2
		c1.7-0.3,3.5-0.6,5.2-1c0.9-0.8,1.6-1.7,2.5-2.5l0,0c0.3-0.4,0.7-0.7,1-1.1c0.1-0.1,0.3-0.2,0.5-0.2c3.8-0.8,7.6-1.6,11.4-2.4
		c0.1,0,0.3-0.1,0.3-0.1c1.8-0.4,3.6-0.8,5.4-1.2l0.1,0c1.1-0.2,2.3-0.5,3.4-0.7l0.1,0c0.2,0,0.3-0.1,0.5-0.1c0.5-3.1,1-6.1,1.5-9.2
		l0-0.1c11.1,0,22.2,0,33.3,0c1.3,0,2.6-0.1,3.8,0.1c10.8,0,21.5,0,32.3,0c3.2,0,6.4,0,9.5,0c-0.1-3,0-5.9,0-8.9c0-7,0-13.9,0-20.9
		c0-0.7,0-1.4,0-2c0-2.8,0-5.6,0-8.4c0-4.1,0-8.3,0-12.4c0-0.4,0-0.8,0-1.3c-2.3,0-4.6,0-6.9,0c0.6-0.5,1.2-1,1.7-1.6l0.4-0.4
		c0.3-0.3,0.6-0.5,0.8-0.8c1.5-1.7,2.9-3.5,4.1-5.4l0.1-0.1c0.4-0.8,0.8-1.5,1.2-2.3C124.3,44.7,124.3,44.6,124.3,44.6z M36.1,95.8
		c-0.2,0-0.3,0-0.5,0l-0.1,0c0-9.2,0-18.5,0-27.7l0,0c0.2,0,0.4,0,0.6,0c0.1,1.8,0,3.6,0,5.3c0,6.9,0,13.8,0,20.7
		C36.1,94.6,36.1,95.2,36.1,95.8z M37.4,74c0,7.3,0,14.5,0,21.8c-0.2,0-0.3,0-0.5,0l-0.2,0c0-9.2,0-18.5,0-27.7c0.2,0,0.5,0,0.7,0.1
		C37.3,70.1,37.4,72,37.4,74z M38.7,95.8l-0.2,0c-0.2,0-0.3,0-0.5,0c0-9.2,0-18.3,0-27.5c0-0.1,0-0.2,0-0.2c0.2,0,0.4,0,0.6,0
		C38.6,77.3,38.7,86.5,38.7,95.8z M39.9,95.7l-0.2,0.1c0,0-0.1,0-0.2,0c-0.1,0-0.2-0.1-0.2-0.1c0-9.2,0-18.4,0-27.7
		c0.2,0,0.4,0,0.7,0C39.9,77.3,40,86.5,39.9,95.7z M32.8,50.2c-2.8-1.5-5-4.1-6.1-7.2c-0.9-2.7-0.9-5.6,0-8.2c1.1-3.4,3.7-6.2,7-7.6
		c3.9-1.8,8.7-1.4,12.3,1c0.1,0.1,0.4,0.2,0.4,0.3c0,0,0.1,0.1,0.2,0.1c0,0,0.1,0.1,0.2,0.1c2.5,1.9,4.2,4.7,4.7,7.7
		c0,0.2,0.1,0.5,0.1,0.7c0.2,1.2,0.2,2.4,0,3.6c-0.3,2.3-1.3,4.5-2.8,6.3h0c-0.1,0-0.2,0.1-0.2,0.2c-0.7,0.9-1.6,1.7-2.6,2.3
		c-1.5,1-3.3,1.7-5.1,2c-0.1,0-0.3,0-0.4,0.1C37.9,51.9,35.2,51.4,32.8,50.2z M51.7,68.7c-3.5,0-7,0-10.5,0c0,0.2,0,0.4,0,0.7
		c3.5,0,7,0,10.5,0l0,0.2c0,0.2,0,0.3,0,0.5c-3.5,0-7,0-10.4,0c0,0.2,0,0.4,0,0.6c3.4,0,6.9,0,10.3,0l0.1,0c0,0.2,0,0.4,0,0.6
		c-3.5,0-6.9,0-10.4,0c0,0.2,0,0.4,0,0.6c3.5,0,7,0,10.4,0c0,0.2,0,0.3,0,0.5l0,0.2c-3.5,0-7,0-10.4,0c0,0.2,0,0.4,0,0.7
		c3.2,0,6.3,0,9.5,0c0.3,0,0.7,0,1,0l0,0.2c0,0,0,0.1-0.1,0.2l0.1,0.2c-0.2,0-0.4,0.1-0.6,0.1c-3.3,0-6.6,0-9.9,0c0,1.7,0,3.4,0,5.1
		l0,0.1c2.6,0,5.2,0,7.7,0c0,0.2,0,0.4,0,0.6c-2.6,0-5.2,0-7.7,0c0,0.2,0,0.4,0,0.6c2.6,0,5.2,0,7.8,0c0,0.2,0,0.4,0,0.7
		c-2.6,0-5.2,0-7.8,0c0,0.2,0,0.4,0,0.7c0.4-0.1,0.8,0,1.3,0c2.2,0,4.3,0,6.5,0c0,0.2,0,0.4,0,0.6c-2.6,0-5.2,0-7.8,0
		c0,0.2,0,0.4,0,0.7c1.8-0.1,3.7,0,5.5,0c0.7,0,1.4,0,2.2,0l0.1,0c0,0.2,0,0.4,0,0.6c-2.6,0-5.1,0-7.7,0c-0.1,0.2,0,0.4,0,0.7
		c2.6,0,5.2,0,7.8,0c0,0.2,0,0.4,0,0.6c-2.6,0-5.2,0-7.7,0c0,3.7,0,7.4,0,11l-0.1,0c-0.1,0-0.2,0-0.2,0c-0.1,0-0.2,0-0.3,0
		c0-9.2,0-18.5,0-27.7c3.7,0,7.4,0,11.1,0c0,0.1,0.1,0.2,0.1,0.2c0,0.1-0.1,0.2-0.1,0.2L51.7,68.7z M54.3,95.8l-0.2,0
		c-0.2,0-0.3,0-0.5,0c0-9.2,0-18.5,0-27.7c0.2,0,0.4,0,0.6,0C54.3,77.3,54.3,86.5,54.3,95.8z M55.6,95.7c-0.1,0-0.2,0.1-0.2,0.1
		c0,0-0.1,0-0.2,0c-0.1,0-0.2,0-0.3-0.1c0-9.2,0-18.5,0-27.7h0.7C55.6,77.3,55.6,86.5,55.6,95.7z M56.9,95.8l-0.2-0.1
		c-0.1,0-0.2,0-0.2,0l-0.2,0c0-9.2,0-18.5,0-27.7c0.2,0,0.4,0,0.7,0c0,9.1,0,18.2,0,27.3C56.9,95.5,56.9,95.7,56.9,95.8z M58.2,95.8
		l-0.2,0c-0.2,0-0.3,0-0.5,0c0-6.8,0-13.6,0-20.4c0-2.4,0-4.8,0-7.3c0.2,0,0.4,0,0.7,0l0.1,0c0,9.1,0,18.2,0,27.3
		C58.3,95.5,58.3,95.7,58.2,95.8z M59.5,95.8c-0.2,0-0.4,0-0.7,0c0-9.2,0-18.5,0-27.7c0.2,0,0.4,0,0.7,0
		C59.5,77.3,59.5,86.5,59.5,95.8z M59.8,55.4c0.4-0.6,0.8-1.1,1.1-1.8c0,0,0.2-0.3,0.2-0.3c0.4-0.7,0.8-1.5,1.2-2.2
		c0.1-0.3,0.3-0.6,0.4-0.9c0.3-0.8,0.7-1.7,0.9-2.5c1-0.1,2.1-0.4,3.1-0.5c0.2,0,0.3-0.1,0.5-0.1c0.5-0.1,1-0.2,1.5-0.2
		c0.1,0.2,0.2,0.4,0.4,0.6c1.1,1.8,2.4,3.5,3.8,5.1l0,0c0.3,0.3,0.7,0.7,1,1.1c0.7,0.6,1.3,1.2,2,1.8C70.5,55.5,65.2,55.4,59.8,55.4
		z M62.3,95.8c-0.2,0-0.4,0-0.5,0c0-9.2,0-18.5,0-27.7c0.2,0,0.4,0,0.7,0c0,9.2,0,18.5,0,27.7L62.3,95.8z M63.7,95.8l-0.2,0
		c-0.2,0-0.3,0-0.5,0c0-8.6,0-17.1,0-25.7c0-0.7,0-1.3,0-2c0.2-0.1,0.4-0.1,0.7-0.1l0.1,0c0,9,0,18.1,0,27.1
		C63.7,95.3,63.7,95.6,63.7,95.8z M65,95.8l-0.2,0l-0.2,0l-0.2,0c-0.1-0.4,0-0.8,0-1.2c0-6.7,0-13.4,0-20c0-2.2,0-4.3,0-6.5l0,0
		c0.2,0,0.4,0,0.6,0l0,0.1c0.1,3,0,5.9,0,8.9c0,4,0,8,0,11.9C65,91.2,65,93.5,65,95.8z M65.6,95.8c0-0.2-0.1-0.4,0-0.7
		c0-9,0-18.1,0-27.1l0.1,0c0.2,0,0.4,0,0.6,0c0,9.2,0,18.5,0,27.7C66,95.8,65.8,95.8,65.6,95.8z M79,94.5c-3.8,0-7.6,0-11.4,0
		c0,0.2,0,0.4,0,0.6c3.8,0,7.6,0,11.4,0l0,0.2c0,0.2,0,0.3,0,0.5c-0.2,0-0.4,0-0.6,0c-3.8,0.1-7.6,0-11.4,0l-0.1,0
		c0-9.2,0-18.5,0-27.7c0.2,0,0.4,0,0.7,0c0,7.3,0,14.6,0,22l0,0c3.8-0.1,7.6,0,11.4,0c0,0.2,0,0.3,0,0.5l0,0.1c-3.8,0-7.6,0-11.4,0
		c0,0.2,0,0.4,0,0.6c3.2,0,6.4,0,9.7,0c0.6,0,1.2-0.1,1.8,0l0,0.2c0,0.1,0,0.2,0,0.2l0,0.2c-3.8,0-7.6,0-11.4,0L67.5,92
		c0.1,0.2,0.1,0.3,0,0.5c0.2,0.1,0.5,0.1,0.8,0.1c3.2,0,6.5,0,9.7,0c0.3,0,0.7,0,1,0l0,0.2c0,0.1,0,0.2,0,0.2l0,0.2
		c-0.3,0.1-0.7,0-1,0c-3.5,0-7,0-10.4,0c0,0.2,0,0.4,0,0.5c3.7,0.1,7.4,0,11,0c0.1,0,0.3,0,0.4,0.1l0,0.2C78.9,94.2,79,94.3,79,94.5
		z M81.8,22.5c0.4-0.6,0.8-1.3,1.3-1.9c0.2-0.3,0.4-0.5,0.7-0.8c0-0.1,0.1-0.2,0.2-0.3l0.1-0.1c0,0,0.1-0.1,0.2-0.1
		c0.3-0.4,0.7-0.7,1.1-1.1c0.3-0.3,0.7-0.6,1.1-0.8c0.4-0.3,0.8-0.6,1.3-0.8l0,0c1-0.6,2.1-1,3.2-1.4c0.2-0.1,0.5-0.1,0.7-0.1l0-0.1
		c1.8-0.5,3.7-0.5,5.5-0.4c0.3,0,0.7,0,1,0.1c0.7,0.1,1.4,0.3,2,0.5c1.3,0.4,2.5,1,3.7,1.7c0.1,0.1,1.2,0.9,1.5,1
		c0.4,0.4,0.9,0.7,1.3,1.2c0,0,0.7,0.7,0.7,0.7c0.5,0.5,0.9,1,1.2,1.6c0.2,0.2,0.3,0.4,0.4,0.6c0.1,0.1,0.1,0.2,0.2,0.3
		c2.1,3.5,2.7,7.8,1.7,11.8c-0.1,0.6-0.6,2-0.7,2c-0.2,0.8-1.3,2.7-1.3,2.7c-0.1,0.3-0.4,0.6-0.6,0.9c-0.3,0.4-0.6,0.8-0.9,1.1
		c-0.1,0.1-0.2,0.2-0.3,0.3c-0.3,0.3-0.6,0.6-0.9,0.9c-1,0.9-2.1,1.7-3.3,2.4l0,0c-0.1,0.1-0.3,0.1-0.4,0.2c-1,0.5-2.1,0.9-3.3,1.2
		c-0.2,0-0.4,0.1-0.5,0.1c-0.3,0.1-0.6,0.1-0.9,0.1c-1.5,0.2-2.9,0.2-4.4,0c-1.2-0.1-2.3-0.5-3.5-0.8c0,0-0.1-0.1-0.1-0.2l-0.1,0
		c-2-0.8-3.9-2.1-5.4-3.7c0,0,0,0,0,0c-1.7-1.8-3-4-3.7-6.3C79,31,79.6,26.3,81.8,22.5z M115.7,95.7c-0.2,0-0.4,0-0.6,0
		c-1.6-9.2-3.1-18.5-4.7-27.7c0.2,0,0.4,0,0.7,0C112.6,77.3,114.2,86.5,115.7,95.7z M103.3,95.7c-0.3,0-0.5,0-0.7,0
		c2.7-6.1,5.4-12.2,8-18.3c0.1-0.4-0.1-0.8-0.1-1.2c-1.1,2.3-2,4.6-3.1,7c-1.8,4.2-3.7,8.4-5.5,12.6c-0.1,0-0.4,0-0.8,0l9.1-20.7
		l-0.2-1.3l-9.7,22c-0.3,0-0.6,0-0.6,0l0,0l10.1-23.1l-0.2-1.3L99,95.8l-0.7,0c3.7-8.5,7.4-16.9,11.1-25.4c0.1-0.4-0.1-0.8-0.2-1.2
		c-3.8,8.8-7.7,17.7-11.6,26.5c-0.2,0-0.5,0-0.7,0c-2.4-5.5-4.8-11.1-7.1-16.6c-0.2-0.4-0.3-0.8-0.5-1.2c-1,5.9-2,11.9-3,17.8
		c-0.2,0-0.4,0-0.6,0c1-6.2,2.1-12.5,3.1-18.7c0.1-0.5-0.2-0.9-0.4-1.4c-1.1,6.7-2.3,13.4-3.4,20.1c-0.2,0-0.4,0-0.6,0
		c1.2-6.9,2.3-13.9,3.5-20.8c0.1-0.5-0.3-0.9-0.4-1.4c-0.3,1.1-0.4,2.3-0.6,3.4c-1.1,6.2-2.1,12.5-3.2,18.7c-0.2,0-0.4,0-0.7,0
		c1.3-7.7,2.6-15.4,3.9-23.2c0-0.4-0.3-0.8-0.4-1.2c-1.4,8.1-2.8,16.3-4.1,24.4c-0.2,0-0.4,0-0.6,0c1.4-8.5,2.9-16.9,4.3-25.4
		c-0.1-0.4-0.3-0.8-0.5-1.1c-1.5,8.8-3,17.7-4.5,26.5c-0.2,0-0.4,0-0.7,0c1.6-9.2,3.1-18.5,4.7-27.7c0.2,0,0.5,0,0.7,0
		c3.9,9,7.7,18,11.5,26.9c0.1-0.2,0.3-0.5,0.4-0.7c-3.8-8.7-7.5-17.5-11.2-26.2c0.2,0,0.5,0,0.7,0c3.6,8.4,7.2,16.9,10.9,25.4
		c0.1-0.3,0.2-0.5,0.4-0.8c-3.5-8.2-7-16.4-10.5-24.6c0.2,0,0.5,0,0.8,0c2.8,6.5,5.5,13,8.3,19.5c0.6,1.4,1.2,2.8,1.7,4.2
		c0.2-0.2,0.3-0.5,0.4-0.8c-3.3-7.6-6.6-15.3-9.8-22.9H90c3.1,7.4,6.3,14.7,9.4,22.1c0.1-0.3,0.4-0.6,0.3-0.9c-3-7-6-14.1-9.1-21.1
		c0.2,0,0.5,0,0.7,0c2.9,6.8,5.8,13.7,8.8,20.5c3-6.8,6-13.7,9-20.5c0.2,0,0.4,0,0.6,0c1.6,9.2,3.1,18.5,4.7,27.7
		c-0.2,0-0.4,0-0.7,0c-1-5.7-1.9-11.5-2.9-17.2C108.3,84.3,105.8,90,103.3,95.7z M113.8,104.2c-1.6,0-3-1.3-3-3c0-1.6,1.3-3,3-3
		c1.6,0,3,1.3,3,3C116.8,102.9,115.4,104.2,113.8,104.2z M116.4,95.8c-1.6-9.2-3.1-18.5-4.7-27.7c0.2,0,0.4,0,0.7,0
		c1.6,9.2,3.1,18.5,4.7,27.7C116.9,95.8,116.6,95.8,116.4,95.8z M117.7,95.8c-1.5-9.2-3.1-18.5-4.7-27.7c0.2,0,0.4,0,0.6,0
		c1.6,9.2,3.1,18.5,4.7,27.7C118.1,95.8,117.9,95.8,117.7,95.8z M119.7,95.8c-0.2,0-0.4,0-0.7,0c-1.6-9.2-3.1-18.5-4.7-27.7
		c0.2,0,0.4,0,0.6,0C116.6,77.3,118.1,86.5,119.7,95.8z"/>
</g>
</svg>
