<?xml version="1.0" encoding="utf-8"?>
<!-- Generator: Adobe Illustrator 25.0.1, SVG Export Plug-In . SVG Version: 6.00 Build 0)  -->
<svg version="1.1" id="Layer_1" xmlns="http://www.w3.org/2000/svg" xmlns:xlink="http://www.w3.org/1999/xlink" x="0px" y="0px"
	 viewBox="0 0 143.3 204.8" style="enable-background:new 0 0 143.3 204.8;" xml:space="preserve">
<style type="text/css">
	.Drop_x0020_Shadow{fill:none;}
	.Outer_x0020_Glow_x0020_5_x0020_pt{fill:none;}
	.Blue_x0020_Neon{fill:none;stroke:#8AACDA;stroke-width:7;stroke-linecap:round;stroke-linejoin:round;}
	.Chrome_x0020_Highlight{fill:url(#SVGID_1_);stroke:#FFFFFF;stroke-width:0.3629;stroke-miterlimit:1;}
	.Jive_GS{fill:#FFDD00;}
	.Alyssa_GS{fill:#A6D0E4;}
	.st0{fill:none;}
	.st1{fill:#030303;stroke:#030303;stroke-width:2.026713e-02;}
	.st2{fill-rule:evenodd;clip-rule:evenodd;}
	.st3{fill:#0A0B09;}
</style>
<linearGradient id="SVGID_1_" gradientUnits="userSpaceOnUse" x1="-63.0086" y1="-479.2179" x2="-63.0086" y2="-480.2179">
	<stop  offset="0" style="stop-color:#656565"/>
	<stop  offset="0.618" style="stop-color:#1B1B1B"/>
	<stop  offset="0.6292" style="stop-color:#545454"/>
	<stop  offset="0.9831" style="stop-color:#3E3E3E"/>
</linearGradient>
<g>
	<path d="M95.5,41.3c22.8,0,20.8-0.9,20.7,16.1c7-4.6,14.1-9.2,21.1-13.8c1.9,0.3,3.8,0.8,5.7,1.5c0,12.4,0,24.9,0,37.3
		c-1.8,0.7-3.8,1.2-5.7,1.5c-7-4.6-14.1-9.2-21.1-13.7c0,10.4,0.5,11.1-1.9,12.9c-3.1,2.3-1.2,1.8-55.4,1.8c-2.5,0-5.5-0.8-7-2.8
		c-1-1.3-0.8-1.9-0.8-8.1c-7.9,1.6-15.8,3.2-23.7,4.8c0.1,0.8,0.2,1.9-0.1,2.3c-0.5-0.6-0.6-1.4-0.8-2.1c-1.7,0.4-14,4.3-24.1,4.9
		c-0.5,0-2.2,0.1-2.4-0.3c0.3-1.7,19.8-6.1,26.2-6c-0.1-0.6-0.4-2.7,0-3.2c0.5-0.1,1,2.6,1.1,3c8-1.6,15.9-3.2,23.9-4.8
		c0-6.4,0.1-15.9-0.1-17.9c-4.2,0.1-8.5-1-12.2-3C18,39.9,27.2,7.9,52.1,9.8c5.9,0.5,10,3.1,10,3.1c0.6,0,1-1.3,1.3-1.8
		c8.2-13.8,28.3-14.7,38-2.6C110,19.2,106.9,34.3,95.5,41.3z"/>
	<path d="M68.4,86.1c10,0,20.1,0,30.1,0C95.2,101.6,72.4,102.6,68.4,86.1z"/>
	<path d="M67.1,98.8c10.9,0,21.8,0,32.7,0c0,3.5,0,7.1,0,10.6c-1.8,0-3.6,0-5.4,0c0.2,0.3,48.4,93.2,48.8,94.1
		c0.1,0.2,0.1,0.5-0.1,0.7c-0.3,0.3-0.9,1-1.3,0.5c-21.9-39.9-51.9-94.5-52.3-95.2c-1.9,0-3.8,0-5.7,0c2.4,87.2,2.5,82.1,1.6,82.3
		c-2.4-36.9-5.5-82-5.4-82.3c-1.1,0-2.3,0-3.4,0c-17.4,31.6-34.7,63.3-52.1,94.9c-0.2-0.2-0.4-0.4-0.6-0.5
		c0.2-0.3,42.5-81.8,49-94.3c-1.9,0-3.8,0-5.7,0C67.1,105.9,67.1,102.4,67.1,98.8z"/>
</g>
</svg>
