<?xml version="1.0" encoding="utf-8"?>
<!-- Generator: Adobe Illustrator 25.0.1, SVG Export Plug-In . SVG Version: 6.00 Build 0)  -->
<svg version="1.1" id="Layer_1" xmlns="http://www.w3.org/2000/svg" xmlns:xlink="http://www.w3.org/1999/xlink" x="0px" y="0px"
	 viewBox="0 0 171.5 125.3" style="enable-background:new 0 0 171.5 125.3;" xml:space="preserve">
<style type="text/css">
	.Drop_x0020_Shadow{fill:none;}
	.Outer_x0020_Glow_x0020_5_x0020_pt{fill:none;}
	.Blue_x0020_Neon{fill:none;stroke:#8AACDA;stroke-width:7;stroke-linecap:round;stroke-linejoin:round;}
	.Chrome_x0020_Highlight{fill:url(#SVGID_1_);stroke:#FFFFFF;stroke-width:0.3629;stroke-miterlimit:1;}
	.Jive_GS{fill:#FFDD00;}
	.Alyssa_GS{fill:#A6D0E4;}
	.st0{fill:none;}
	.st1{fill:#030303;stroke:#030303;stroke-width:2.026713e-02;}
	.st2{fill-rule:evenodd;clip-rule:evenodd;}
	.st3{fill:#0A0B09;}
</style>
<linearGradient id="SVGID_1_" gradientUnits="userSpaceOnUse" x1="-624.5317" y1="-273.1554" x2="-624.5317" y2="-274.1554">
	<stop  offset="0" style="stop-color:#656565"/>
	<stop  offset="0.618" style="stop-color:#1B1B1B"/>
	<stop  offset="0.6292" style="stop-color:#545454"/>
	<stop  offset="0.9831" style="stop-color:#3E3E3E"/>
</linearGradient>
<g id="_x23_030303ff">
	<path class="st1" d="M108.7,5.6c8.4-5,18.6-6.4,28.2-5.1c6.9,1,13.6,3.7,19.2,8c5.5,4.2,10.1,9.7,12.7,16.1
		c1.9,4.5,2.7,9.4,2.7,14.3c0,6.8-1.9,13.6-5.7,19.3c-3.6,5.5-8.5,10-14.2,13.3c-6.7,3.9-14.5,5.6-22.2,5.4
		c-3.9-0.1-7.7-0.6-11.4-1.7c0,3.7,0,7.4,0,11.1c1.1,0,2.1,0,3.2,0c0-1.8,0-3.7,0-5.5c4.3,0,8.5,0,12.8,0c0,10.1,0,20.3,0.1,30.4
		c-4.3,0-8.5,0-12.8,0c0-1.6,0-3.1,0-4.7c-1.1,0-2.1,0-3.2,0c0,2.4,0,4.9,0,7.3c-4.5,0-9,0-13.5,0c0,3.8,0,7.6,0,11.4
		c-8.3-0.1-16.7,0-25,0c-13.3,0-26.6,0-39.9,0c0-3.8,0-7.6,0-11.4c-2.8,0-5.5,0-8.3,0c0-10.5,0.1-21.1,0.1-31.6
		c-4.5-0.4-8.9-1.6-12.9-3.7c-3.7-1.9-7-4.4-9.8-7.5c-2.6-2.8-4.9-6.1-6.3-9.7C-0.3,55.3-0.6,48.4,1,42C2.5,35.7,6.2,30.2,11,26
		c5.1-4.6,11.7-7.7,18.6-8.6c7.3-1,15,0,21.6,3.2c6.6,3.1,12.1,8.4,15.4,14.9c7.5,0,15,0,22.5,0c0.4-4.9,1.7-9.7,3.9-14
		C96.6,14.9,102.2,9.4,108.7,5.6 M115.8,9.4c-3.7,1.3-7,3.5-9.9,6c-3,2.6-5.6,5.8-6.8,9.6c4.4,1.7,8.9,3.3,13.3,4.9
		c1.6,0.6,3.3,1.3,5.1,1.3c2.5,0,4.9-1.3,6.7-3.1c1.7-1.6,3-3.8,2.8-6.2c-0.4-4.4-0.9-8.8-1.4-13.2C122.3,7.9,118.9,8.3,115.8,9.4
		 M134.5,8.3c-0.4,4.7-0.4,9.4-0.3,14.2c0.1,2.2,1.5,4.2,3.2,5.4c1.8,1.3,3.9,2.4,6.1,2.6c1.2,0.2,2.4-0.4,3.5-0.8
		c4.2-1.7,8.2-3.9,12.2-5.8c-1.2-3.9-4.2-6.8-7.3-9.3c-3.5-2.7-7.5-5.2-11.9-6.2C138.2,8,136.3,8,134.5,8.3 M27.2,24.9
		c-3,0.1-5.9,1.2-8.4,2.8c-4,2.6-7.5,6.3-8.9,10.9c3.9,1.6,7.8,3,11.7,4.5c1.7,0.7,3.8,0.7,5.5,0c1.9-0.8,3.4-2.4,4.4-4.3
		c0.1-1.1,0-2.1,0-3.2c0.3,0,0.6,0,0.9,0c-0.1-3.7-0.3-7.4-0.5-11C30.3,24.6,28.7,24.9,27.2,24.9 M38.7,24.6
		c-0.3,3.7-0.3,7.3-0.3,11c6.8,0,13.6-0.1,20.5,0c-1.6-3-4.2-5.4-7-7.3c-2.7-1.8-5.7-3.2-8.9-3.6C41.6,24.5,40.1,24.6,38.7,24.6
		 M124.7,33.9c0.6,0.6,1.2,1.2,1.8,1.8c-0.7,0.8-0.8,1.9-0.7,3c0,1.5,0.6,3,1.9,3.8c2.2,1.4,5.5,1.3,7.4-0.7c1.3-1.4,1.7-3.5,1-5.3
		c-0.6-1.3-1.7-2.5-3.1-2.9c-1.5-0.4-3.2-0.3-4.7,0.4c-0.6-0.6-1.3-1.1-1.9-1.7C125.8,32.8,125.3,33.4,124.7,33.9 M153.2,34.8
		c-2.7,0.9-5,2.9-7.1,4.8c-1.3,1.3-2.8,2.9-2.6,4.9c0.1,3.3,1.8,6.5,4.2,8.7c2.6,2.3,5.1,4.7,7.7,7.1c2.7-1.5,4.5-4.2,5.8-6.9
		c1.7-3.7,2.8-7.6,3.2-11.7c0.2-3.1,0.2-6.4-1.5-9.1C159.6,33.3,156.4,34,153.2,34.8 M97.2,33.5c-0.1,0.8-0.2,1.6-0.3,2.3
		c2.4,0,4.8,0,7.2,0c3.2-0.1,6.3,0.1,9.5-0.1c-0.4,0-0.9,0-1.3-0.1C107.3,35,102.2,34.2,97.2,33.5 M117.9,42.2c0,2.5-0.1,4.9,0,7.4
		c0.9-2.3,2.1-4.4,3-6.7C120,42.7,118.9,42.4,117.9,42.2 M8,46.5c-0.4,1.6-0.3,3.2-0.4,4.8c0,4.4,1.4,8.6,3.6,12.3
		c1.2,2,2.7,3.9,4.8,5c2.2-2.4,4.4-4.9,6.5-7.4c1.6-2,1.6-4.6,1.4-7c-0.2-1.9-0.7-4-2.2-5.3c-0.9-0.7-2-1.1-3.1-1.2
		C15,47.4,11.5,46.9,8,46.5 M125.5,51.2c-1.2,0.8-2.2,2-3,3.2c-1.5,2.5-3.1,4.9-4.5,7.4c-0.1,1.8,0,3.7,0,5.5
		c1.6,0.8,3.2,1.4,4.9,1.8c4.7,1.1,9.5,1.2,14.3,0.7c3.5-0.4,7.1-1.2,9.8-3.5c-1.9-2.9-3.8-5.9-5.7-8.9c-1.1-1.7-2.1-3.5-3.6-4.9
		c-1.5-1.6-3.5-2.8-5.8-2.9C129.7,49.5,127.4,50,125.5,51.2 M28.5,63.8c-1.9,3.1-3.8,6.2-5.6,9.3c2.3,2.1,5.5,2.8,8.5,3.1
		c0-5.1-0.1-10.2,0.1-15.3C30.2,61.6,29.2,62.6,28.5,63.8z"/>
</g>
</svg>
