<?xml version="1.0" encoding="utf-8"?>
<!-- Generator: Adobe Illustrator 25.0.1, SVG Export Plug-In . SVG Version: 6.00 Build 0)  -->
<svg version="1.1" id="Layer_1" xmlns="http://www.w3.org/2000/svg" xmlns:xlink="http://www.w3.org/1999/xlink" x="0px" y="0px"
	 viewBox="0 0 152.8 130.7" style="enable-background:new 0 0 152.8 130.7;" xml:space="preserve">
<style type="text/css">
	.Drop_x0020_Shadow{fill:none;}
	.Outer_x0020_Glow_x0020_5_x0020_pt{fill:none;}
	.Blue_x0020_Neon{fill:none;stroke:#8AACDA;stroke-width:7;stroke-linecap:round;stroke-linejoin:round;}
	.Chrome_x0020_Highlight{fill:url(#SVGID_1_);stroke:#FFFFFF;stroke-width:0.3629;stroke-miterlimit:1;}
	.Jive_GS{fill:#FFDD00;}
	.Alyssa_GS{fill:#A6D0E4;}
	.st0{fill:none;}
	.st1{fill:#030303;stroke:#030303;stroke-width:2.026713e-02;}
	.st2{fill-rule:evenodd;clip-rule:evenodd;}
	.st3{fill:#0A0B09;}
</style>
<linearGradient id="SVGID_1_" gradientUnits="userSpaceOnUse" x1="-442.0052" y1="-270.4479" x2="-442.0052" y2="-271.4479">
	<stop  offset="0" style="stop-color:#656565"/>
	<stop  offset="0.618" style="stop-color:#1B1B1B"/>
	<stop  offset="0.6292" style="stop-color:#545454"/>
	<stop  offset="0.9831" style="stop-color:#3E3E3E"/>
</linearGradient>
<g>
	<path d="M16.9,66c2.8-0.4,5.3-0.1,7.7,1.1c1,0.5,2.1,0.9,3.1,1.3c0,0,0.1,0,0.2,0c1.6,0,3.2,0,4.9,0c0-0.9,0-1.7,0-2.5
		c0-0.2-0.4-0.4-0.7-0.5c-3.8-1.1-7.2-2.9-10.2-5.5c-6.4-5.7-9.4-12.8-8.9-21.4c0.8-12.3,9.7-22,21.7-24.1
		c10.2-1.8,20.6,2.9,26.3,11.8c0.3,0.5,0.6,0.7,1.2,0.5c1-0.3,2.2-0.1,2.8-0.7c0.6-0.5,0.5-1.8,0.8-2.7C69.2,11.1,79.5,2.1,92.2,0.3
		C109-2,125,9.8,127.5,26.5c1.7,11.3-1.8,20.8-10.2,28.6c-0.2,0.2-0.4,0.4-0.7,0.6c2.3,0,4.5,0,6.7,0c0,18.1,0,36.1,0,54.2
		c-13.2,0-26.4,0-39.6,0c-13.2,0-26.4,0-39.7,0c-0.2,1.2-0.4,2.4-0.6,3.6c-0.3,1.8-0.6,3.5-0.8,5.3c-0.1,0.6-0.4,0.6-0.8,0.7
		c-4.8,1-9.7,2.1-14.5,3.1c-1.9,0.4-3.9,0.8-5.8,1.3c-0.4,0.1-0.7,0.3-1,0.6c-0.8,0.7-1.5,1.4-2.2,2.2c-0.7,0.8-1.5,1.2-2.5,1.3
		c-4.7,0.8-9.4,1.8-14,2.7c-0.2,0-0.3,0-0.6,0.1c-0.4-3-0.7-6-1.1-9c1.9-0.4,3.8-0.7,5.6-1.1c3.2-0.6,6.5-1.3,9.7-1.9
		c0.4-0.1,0.8,0,1.2,0.1c1.1,0.5,2.1,1.1,3.2,1.6c0.3,0.2,0.8,0.3,1.1,0.2c6.2-1.2,12.4-2.3,18.6-3.5c0.3,0,0.6-0.3,0.7-0.5
		c0.3-2.1,0.6-4.3,0.9-6.4c0-0.1,0-0.2,0-0.3c-2.7,0-5.4,0-8.2,0c0-10.9,0-21.7,0-32.6c-1.6,0-3.2,0-4.8,0c-0.1,0-0.3,0.2-0.4,0.3
		c-0.2,0.2-0.4,0.4-0.4,0.7c-0.5,1.5-1.9,1.6-3.1,1.9c-0.1,0-0.4-0.1-0.5-0.3C21.4,75.4,19.1,70.7,16.9,66z M80,30.8
		c0,8.8,7.1,15.9,16,15.9c8.8,0,15.9-7.2,15.9-15.9c0-8.9-7.2-16.1-16-16C87.1,14.9,80,22,80,30.8z M39.1,52c7,0,12.9-5.5,12.9-12.9
		c0-7.1-5.8-12.9-12.9-12.9c-7.1,0-13,5.8-13,12.9C26.2,46.3,32,52,39.1,52z M76.1,55.7c-0.1-0.1-0.2-0.2-0.3-0.3
		c-2.6-2.3-4.8-4.9-6.6-7.8c-0.1-0.2-0.6-0.4-0.8-0.3c-1.3,0.2-2.5,0.5-3.8,0.7c-0.5,0.1-0.7,0.3-0.9,0.8c-0.8,2.3-1.8,4.4-3.2,6.4
		c-0.1,0.2-0.2,0.3-0.3,0.6C65.5,55.7,70.8,55.7,76.1,55.7z M111.5,101.7c0,1.6,1.2,2.8,2.8,2.8c1.5,0,2.8-1.2,2.8-2.8
		c0-1.5-1.3-2.8-2.8-2.8C112.8,99,111.5,100.2,111.5,101.7z"/>
	<path d="M152.8,52.7c0,14.4,0,28.6,0,43c-0.7-0.4-1.2-0.7-1.8-1c-4.5-2.7-8.9-5.4-13.4-8.1c-0.4-0.2-0.9-0.4-1.4-0.4
		c-3.6,0-7.1,0-10.7,0c-1.2,0-1.2,0-1.2-1.2c0-7.1,0-14.3,0-21.4c0-1.6,0.1-1.7,1.7-1.6c2,0,4,0,6,0.2c3.3,0.3,6.1-0.5,8.8-2.4
		c3.7-2.5,7.6-4.6,11.4-6.9C152.4,52.7,152.6,52.7,152.8,52.7z"/>
	<path d="M102.4,24.5c1.4,0,2.6,1.1,2.6,2.5c0,1.4-1.1,2.5-2.5,2.5c-1.4,0-2.5-1.1-2.6-2.5C99.8,25.6,100.9,24.5,102.4,24.5z"/>
	<path d="M88.2,31.5c-1.4-0.1-2.5-1.2-2.4-2.6c0.1-1.4,1.2-2.5,2.6-2.5c1.4,0,2.5,1.2,2.5,2.6C90.8,30.5,89.7,31.6,88.2,31.5z"/>
	<path d="M104,36.1c0,1.4-1.2,2.5-2.5,2.5c-1.4,0-2.6-1.2-2.6-2.6c0-1.4,1.2-2.5,2.6-2.5C102.9,33.5,104,34.7,104,36.1z"/>
	<path d="M89.4,37.6c0-1.4,1.1-2.5,2.5-2.5c1.4,0,2.5,1.1,2.5,2.5c0,1.4-1.1,2.5-2.6,2.5C90.5,40.1,89.4,39,89.4,37.6z"/>
	<path d="M94.4,19.6c1.4,0,2.5,1.1,2.5,2.5c0,1.4-1.1,2.5-2.5,2.6c-1.4,0-2.6-1.1-2.6-2.5C91.9,20.7,93,19.6,94.4,19.6z"/>
	<path d="M35,37.6c0,1.1-0.9,2.1-2,2.1c-1.1,0-2.1-0.9-2.1-2c0-1.1,0.9-2,2-2C34.1,35.6,35,36.5,35,37.6z"/>
	<path d="M35.9,42.6c1.1,0,2.1,0.9,2.1,2c0,1.1-0.9,2-2,2c-1.1,0-2.1-0.9-2.1-2C33.8,43.5,34.7,42.6,35.9,42.6z"/>
	<path d="M35.9,32.1c0-1.2,0.8-2,2-2c1.1,0,2,0.8,2,2c0,1.2-0.8,2-2,2.1C36.8,34.2,35.9,33.3,35.9,32.1z"/>
	<path d="M44.4,34c1.1,0,2.1,0.9,2,2.1c0,1.1-1,2-2.1,2c-1.1,0-2-0.9-2-2C42.3,34.9,43.2,34,44.4,34z"/>
	<path d="M45.6,43.4c0,1.2-0.8,2-2,2c-1.2,0-2-0.9-2-2c0-1.1,0.9-2,2-2C44.7,41.3,45.6,42.2,45.6,43.4z"/>
</g>
</svg>
