<?xml version="1.0" encoding="utf-8"?>
<!-- Generator: Adobe Illustrator 25.0.1, SVG Export Plug-In . SVG Version: 6.00 Build 0)  -->
<svg version="1.1" id="Layer_1" xmlns="http://www.w3.org/2000/svg" xmlns:xlink="http://www.w3.org/1999/xlink" x="0px" y="0px"
	 viewBox="0 0 166 41.4" style="enable-background:new 0 0 166 41.4;" xml:space="preserve">
<style type="text/css">
	.Drop_x0020_Shadow{fill:none;}
	.Outer_x0020_Glow_x0020_5_x0020_pt{fill:none;}
	.Blue_x0020_Neon{fill:none;stroke:#8AACDA;stroke-width:7;stroke-linecap:round;stroke-linejoin:round;}
	.Chrome_x0020_Highlight{fill:url(#SVGID_1_);stroke:#FFFFFF;stroke-width:0.3629;stroke-miterlimit:1;}
	.Jive_GS{fill:#FFDD00;}
	.Alyssa_GS{fill:#A6D0E4;}
	.st0{fill:none;}
	.st1{fill:#030303;stroke:#030303;stroke-width:2.026713e-02;}
	.st2{fill-rule:evenodd;clip-rule:evenodd;}
	.st3{fill:#0A0B09;}
</style>
<linearGradient id="SVGID_1_" gradientUnits="userSpaceOnUse" x1="-615.1277" y1="-62.4062" x2="-615.1277" y2="-63.4062">
	<stop  offset="0" style="stop-color:#656565"/>
	<stop  offset="0.618" style="stop-color:#1B1B1B"/>
	<stop  offset="0.6292" style="stop-color:#545454"/>
	<stop  offset="0.9831" style="stop-color:#3E3E3E"/>
</linearGradient>
<g>
	<path d="M0,9.7c0-3.2,0-6.4,0-9.6C0.1,0,0.2,0,0.4,0c0.1,0,0.1,0,0.2,0c54.9,0,109.9,0,164.8,0c0.1,0,0.2,0,0.3,0
		c0.1,0,0.2,0,0.3,0.1c0,3.2,0,6.4,0,9.6c-0.1,0.1-0.2,0.1-0.3,0.1c-0.6,0-1.2,0-1.9,0c-0.4,0-0.4,0-0.4,0.4c0,7,0,14,0,21
		c0,0.1,0,0.2,0,0.2c0,0.1,0.1,0.1,0.2,0.1c0.1,0,0.1,0,0.2,0c0.6,0,1.3,0,1.9,0c0.1,0,0.2,0,0.3,0.1c0,3.2,0,6.5,0,9.7
		c-55.3,0-110.7,0-166,0c0-3.2,0-6.4,0-9.6c0.1-0.1,0.2-0.2,0.3-0.2c0.1,0,0.1,0,0.2,0c0.6,0,1.2,0,1.8,0c0.3,0,0.3,0,0.3-0.3
		c0,0,0,0,0,0c0-7,0-14.1,0-21.1c0,0,0-0.1,0-0.1c0-0.2,0-0.2-0.2-0.2c-0.1,0-0.1,0-0.2,0c-0.6,0-1.2,0-1.9,0C0.2,9.9,0.1,9.8,0,9.7
		z M18.9,31.5c4.6,0,9.2,0,13.8,0c0.4,0,0.4,0,0.4-0.4c0-6.9,0-13.8,0-20.7c0-0.4,0-0.4-0.4-0.4c-9.2,0-18.4,0-27.5,0
		c-0.4,0-0.4,0-0.4,0.4c0,6.9,0,13.8,0,20.7c0,0.4,0,0.4,0.4,0.4C9.8,31.5,14.4,31.5,18.9,31.5z M50.8,10c-4.6,0-9.2,0-13.7,0
		c-0.4,0-0.4,0-0.4,0.4c0,6.9,0,13.8,0,20.7c0,0.4,0,0.4,0.4,0.4c9.2,0,18.4,0,27.6,0c0.4,0,0.4,0,0.4-0.4c0-6.9,0-13.9,0-20.8
		c0-0.1,0-0.1,0-0.2c0-0.1-0.1-0.2-0.2-0.2c-0.1,0-0.2,0-0.3,0C60,10,55.4,10,50.8,10z M114.6,31.5c4.6,0,9.2,0,13.8,0
		c0.4,0,0.4,0,0.4-0.4c0-6.9,0-13.8,0-20.7c0-0.4,0-0.4-0.4-0.4c-9.2,0-18.4,0-27.5,0c-0.4,0-0.4,0-0.4,0.4c0,6.9,0,13.8,0,20.7
		c0,0.4,0,0.4,0.4,0.4C105.5,31.5,110,31.5,114.6,31.5z M82.7,31.5c4.6,0,9.2,0,13.8,0c0.4,0,0.4,0,0.4-0.4c0-6.9,0-13.8,0-20.7
		c0-0.4,0-0.4-0.4-0.4c-9.2,0-18.3,0-27.5,0c-0.4,0-0.4,0-0.4,0.4c0,6.9,0,13.8,0,20.7c0,0.4,0,0.4,0.4,0.4
		C73.6,31.5,78.1,31.5,82.7,31.5z M146.5,31.5c4.6,0,9.2,0,13.7,0c0.4,0,0.4,0,0.4-0.4c0-6.9,0-13.8,0-20.7c0-0.4,0-0.4-0.4-0.4
		c-9.2,0-18.3,0-27.5,0c-0.4,0-0.4,0-0.4,0.4c0,6.9,0,13.8,0,20.7c0,0.4,0,0.4,0.4,0.4C137.4,31.5,141.9,31.5,146.5,31.5z M30.2,4.8
		c0,0.6,0,1.2,0,1.8c0,0.4,0.2,0.8,0.7,0.7c0.6,0,1.2,0,1.7,0c0.5,0,0.8-0.3,0.7-0.7c0-0.7,0-1.5,0-2.2c0-0.4,0-0.9,0-1.3
		c0-0.4-0.2-0.6-0.6-0.6c-0.7,0-1.3,0-2,0c-0.3,0-0.5,0.2-0.6,0.4c0,0.1,0,0.2,0,0.3C30.2,3.6,30.2,4.2,30.2,4.8z M160.4,4.8
		C160.4,4.8,160.4,4.8,160.4,4.8c0,0.6,0,1.2,0,1.8c0,0.4,0.3,0.6,0.6,0.6c0.6,0,1.3,0,1.9,0c0.4,0,0.6-0.2,0.6-0.6
		c0-0.1,0-0.1,0-0.2c0-1.1,0-2.3,0-3.4c0-0.1,0-0.2,0-0.3c-0.1-0.3-0.3-0.5-0.6-0.5c-0.7,0-1.3,0-2,0c-0.3,0-0.6,0.3-0.6,0.6
		c0,0.1,0,0.2,0,0.2C160.4,3.7,160.4,4.2,160.4,4.8z M154.7,36.7C154.7,36.7,154.7,36.7,154.7,36.7c0,0.6,0,1.2,0,1.8
		c0,0.4,0.3,0.7,0.7,0.7c0.1,0,0.2,0,0.3,0c0.5,0,1.1,0,1.6,0c0.4,0,0.7-0.3,0.7-0.7c0,0,0-0.1,0-0.1c0-1.1,0-2.3,0-3.4
		c0-0.1,0-0.1,0-0.2c0-0.3-0.3-0.6-0.6-0.6c-0.7,0-1.3,0-2,0c-0.3,0-0.5,0.2-0.6,0.5c0,0.1,0,0.2,0,0.3
		C154.7,35.5,154.7,36.1,154.7,36.7z M152.3,4.8c0-0.6,0-1.2,0-1.8c0-0.5-0.2-0.7-0.7-0.7c-0.6,0-1.2,0-1.8,0
		c-0.4,0-0.7,0.3-0.7,0.7c0,1.2,0,2.4,0,3.6c0,0.4,0.3,0.7,0.7,0.7c0.6,0,1.2,0,1.8,0c0.4,0,0.7-0.3,0.7-0.7
		C152.2,6,152.3,5.4,152.3,4.8z M152.3,36.7c0-0.6,0-1.2,0-1.8c0-0.5-0.2-0.7-0.7-0.7c-0.6,0-1.2,0-1.8,0c-0.4,0-0.7,0.3-0.7,0.7
		c0,1.2,0,2.4,0,3.6c0,0.4,0.3,0.7,0.7,0.7c0.6,0,1.2,0,1.8,0c0.4,0,0.7-0.3,0.7-0.7C152.2,37.9,152.3,37.3,152.3,36.7z M75.5,36.7
		C75.5,36.7,75.5,36.7,75.5,36.7c0,0.6,0,1.2,0,1.8c0,0.4,0.3,0.6,0.6,0.6c0.7,0,1.3,0,2,0c0.3,0,0.6-0.3,0.6-0.6c0-0.1,0-0.1,0-0.2
		c0-1.1,0-2.2,0-3.3c0-0.1,0-0.1,0-0.2c0-0.3-0.3-0.6-0.6-0.6c-0.7,0-1.3,0-2,0c-0.3,0-0.6,0.3-0.6,0.6c0,0.1,0,0.2,0,0.2
		C75.5,35.6,75.5,36.2,75.5,36.7z M35.8,36.7C35.8,36.7,35.8,36.7,35.8,36.7c0,0.6,0,1.2,0,1.8c0,0.4,0.2,0.6,0.6,0.7
		c0.7,0,1.3,0,2,0c0.3,0,0.6-0.3,0.6-0.6c0-0.1,0-0.2,0-0.2c0-1.1,0-2.2,0-3.3c0-0.1,0-0.1,0-0.2c0-0.4-0.3-0.6-0.7-0.7
		c-0.6,0-1.3,0-1.9,0c-0.4,0-0.6,0.3-0.6,0.6c0,0.1,0,0.1,0,0.2C35.8,35.6,35.8,36.2,35.8,36.7z M41.5,4.8
		C41.5,4.8,41.5,4.8,41.5,4.8c0,0.6,0,1.2,0,1.8c0,0.4,0.3,0.6,0.7,0.6c0.6,0,1.2,0,1.9,0c0.4,0,0.6-0.2,0.7-0.6c0,0,0-0.1,0-0.1
		c0-1.1,0-2.3,0-3.4c0-0.1,0-0.2,0-0.3c-0.1-0.3-0.3-0.5-0.6-0.5c-0.7,0-1.3,0-2,0c-0.2,0-0.4,0.1-0.5,0.3c-0.1,0.1-0.1,0.3-0.1,0.4
		C41.5,3.6,41.5,4.2,41.5,4.8z M120.8,4.8C120.8,4.8,120.8,4.8,120.8,4.8c0,0.6,0,1.2,0,1.8c0,0.4,0.3,0.6,0.6,0.6
		c0.6,0,1.3,0,1.9,0c0.3,0,0.6-0.2,0.6-0.5c0-0.1,0-0.2,0-0.3c0-1.1,0-2.2,0-3.3c0-0.1,0-0.2,0-0.3c-0.1-0.3-0.3-0.5-0.6-0.5
		c-0.7,0-1.3,0-2,0c-0.3,0-0.6,0.3-0.6,0.6c0,0.1,0,0.2,0,0.2C120.8,3.7,120.8,4.2,120.8,4.8z M115.1,36.7c0,0.6,0,1.2,0,1.8
		c0,0.4,0.3,0.7,0.7,0.7c0.6,0,1.2,0,1.8,0c0.4,0,0.7-0.3,0.7-0.7c0-1.2,0-2.4,0-3.6c0-0.4-0.2-0.7-0.7-0.7c-0.6,0-1.2,0-1.8,0
		c-0.5,0-0.7,0.2-0.7,0.7C115.1,35.5,115.1,36.1,115.1,36.7z M112.6,4.8C112.6,4.8,112.6,4.8,112.6,4.8c0-0.6,0-1.2,0-1.8
		c0-0.4-0.2-0.7-0.6-0.7c-0.6,0-1.3,0-1.9,0c-0.3,0-0.6,0.3-0.6,0.6c0,0,0,0.1,0,0.1c0,1.2,0,2.3,0,3.5c0,0.4,0.2,0.8,0.7,0.7
		c0.6,0,1.2,0,1.7,0c0.4,0,0.8-0.3,0.7-0.8C112.6,5.9,112.6,5.4,112.6,4.8z M109.4,36.7c0,0.6,0,1.2,0,1.8c0,0.5,0.3,0.7,0.7,0.7
		c0.6,0,1.2,0,1.8,0c0.5,0,0.7-0.3,0.7-0.7c0-1.2,0-2.4,0-3.5c0-0.5-0.2-0.7-0.7-0.7c-0.4,0-0.9,0-1.3,0c-0.2,0-0.4,0-0.5,0
		c-0.4,0-0.6,0.3-0.6,0.6c0,0.1,0,0.1,0,0.2C109.4,35.6,109.4,36.1,109.4,36.7z M81.1,4.8C81.1,4.8,81.1,4.8,81.1,4.8
		c0,0.6,0,1.2,0,1.8c0,0.4,0.3,0.6,0.6,0.7c0.6,0,1.3,0,1.9,0c0.4,0,0.6-0.2,0.7-0.6c0-0.1,0-0.2,0-0.2c0-1.1,0-2.2,0-3.3
		c0-0.1,0-0.2,0-0.2c0-0.4-0.3-0.6-0.7-0.6c-0.2,0-0.5,0-0.7,0c-0.4,0-0.8,0-1.1,0c-0.4,0-0.7,0.2-0.7,0.7c0,0.1,0,0.2,0,0.2
		C81.1,3.7,81.1,4.3,81.1,4.8z M73,36.7C73,36.7,73,36.7,73,36.7c0-0.6,0-1.2,0-1.8c0-0.4-0.2-0.7-0.6-0.7c-0.6,0-1.3,0-1.9,0
		c-0.4,0-0.6,0.3-0.6,0.6c0,0,0,0.1,0,0.1c0,1.2,0,2.3,0,3.5c0,0.4,0.3,0.7,0.7,0.7c0.6,0,1.2,0,1.8,0c0.4,0,0.7-0.3,0.7-0.7
		C73,37.9,73,37.3,73,36.7z M73,4.8c0-0.6,0-1.2,0-1.8c0-0.4-0.2-0.7-0.7-0.7c-0.4,0-0.9,0-1.3,0c-0.2,0-0.4,0-0.6,0
		c-0.3,0-0.6,0.3-0.6,0.6c0,0.1,0,0.1,0,0.2c0,0.7,0,1.4,0,2.1c0,0.4,0,0.9,0,1.3c0,0.4,0.3,0.7,0.7,0.7c0.6,0,1.2,0,1.9,0
		c0.1,0,0.2,0,0.3-0.1C72.9,7.1,73,6.9,73,6.6C73,6,73,5.4,73,4.8z M33.4,36.7C33.4,36.7,33.4,36.7,33.4,36.7c0-0.6,0-1.2,0-1.8
		c0-0.4-0.2-0.6-0.6-0.7c-0.7,0-1.3,0-2,0c-0.4,0-0.6,0.3-0.6,0.6c0,0,0,0.1,0,0.1c0,1.2,0,2.3,0,3.5c0,0.4,0.2,0.8,0.7,0.7
		c0.6,0,1.2,0,1.7,0c0.4,0,0.7-0.3,0.7-0.7C33.4,37.9,33.4,37.3,33.4,36.7z M1.9,4.8C1.9,4.8,1.9,4.8,1.9,4.8c0,0.6,0,1.2,0,1.8
		c0,0.4,0.3,0.6,0.6,0.6c0.6,0,1.3,0,1.9,0C4.8,7.3,5,7,5.1,6.7c0-0.1,0-0.1,0-0.2c0-1.1,0-2.3,0-3.4c0-0.1,0-0.2,0-0.3
		C5,2.5,4.8,2.3,4.5,2.3c-0.7,0-1.3,0-2,0c-0.3,0-0.6,0.3-0.6,0.6c0,0.1,0,0.2,0,0.2C1.9,3.7,1.9,4.2,1.9,4.8z M35.8,4.8
		C35.8,4.8,35.8,4.8,35.8,4.8c0,0.6,0,1.2,0,1.8c0,0.4,0.3,0.6,0.6,0.6c0.6,0,1.3,0,1.9,0c0.2,0,0.3-0.1,0.5-0.2
		C39,6.9,39,6.7,39,6.6c0-0.6,0-1.2,0-1.9c0-0.6,0-1.1,0-1.7c0-0.4-0.3-0.7-0.6-0.7c-0.6,0-1.3,0-1.9,0c-0.1,0-0.3,0-0.4,0.1
		c-0.2,0.1-0.2,0.3-0.2,0.5C35.8,3.6,35.8,4.2,35.8,4.8z M75.5,4.8c0,0.6,0,1.2,0,1.8c0,0.4,0.3,0.7,0.7,0.7c0.6,0,1.2,0,1.8,0
		c0.4,0,0.7-0.3,0.7-0.7c0-1.2,0-2.4,0-3.6c0-0.4-0.3-0.7-0.7-0.7c-0.6,0-1.3,0-1.9,0c-0.2,0-0.3,0-0.4,0.1
		c-0.2,0.1-0.2,0.3-0.2,0.5C75.5,3.6,75.5,4.2,75.5,4.8z M115.1,4.8c0,0.6,0,1.2,0,1.8c0,0.4,0.3,0.8,0.7,0.7c0.6,0,1.2,0,1.8,0
		c0.4,0,0.7-0.3,0.7-0.7c0-1.2,0-2.3,0-3.5c0-0.5-0.2-0.7-0.7-0.7c-0.6,0-1.2,0-1.8,0c-0.5,0-0.7,0.4-0.7,0.7
		C115.1,3.6,115.1,4.2,115.1,4.8z M154.7,4.8c0,0.6,0,1.2,0,1.8c0,0.4,0.3,0.7,0.7,0.7c0.6,0,1.2,0,1.8,0c0.5,0,0.7-0.3,0.7-0.7
		c0-1.2,0-2.4,0-3.6c0-0.4-0.2-0.7-0.7-0.7c-0.6,0-1.2,0-1.8,0c-0.5,0-0.7,0.2-0.7,0.7C154.7,3.6,154.7,4.2,154.7,4.8z M146.6,4.8
		c0-0.6,0-1.2,0-1.8c0-0.5-0.2-0.7-0.7-0.7c-0.6,0-1.2,0-1.8,0c-0.5,0-0.7,0.3-0.7,0.7c0,1.2,0,2.3,0,3.5c0,0.5,0.3,0.7,0.7,0.7
		c0.6,0,1.2,0,1.8,0c0.4,0,0.7-0.3,0.7-0.7C146.6,6,146.6,5.4,146.6,4.8z M107,4.8c0-0.6,0-1.2,0-1.8c0-0.4-0.2-0.7-0.7-0.7
		c-0.6,0-1.2,0-1.8,0c-0.5,0-0.7,0.3-0.7,0.7c0,1.2,0,2.4,0,3.5c0,0.5,0.3,0.7,0.7,0.7c0.6,0,1.2,0,1.8,0c0.4,0,0.7-0.3,0.7-0.7
		C106.9,6,107,5.4,107,4.8z M67.3,4.8c0-0.6,0-1.2,0-1.8c0-0.4-0.2-0.7-0.7-0.7c-0.6,0-1.2,0-1.8,0c-0.5,0-0.7,0.3-0.7,0.7
		c0,1.2,0,2.4,0,3.6c0,0.4,0.3,0.7,0.7,0.7c0.6,0,1.2,0,1.8,0c0.4,0,0.7-0.3,0.7-0.7C67.3,6,67.3,5.4,67.3,4.8z M27.7,4.8
		c0-0.6,0-1.2,0-1.8c0-0.5-0.2-0.7-0.7-0.7c-0.6,0-1.2,0-1.8,0c-0.5,0-0.7,0.3-0.7,0.7c0,1.2,0,2.4,0,3.5c0,0.5,0.3,0.7,0.7,0.7
		c0.6,0,1.2,0,1.8,0c0.4,0,0.7-0.3,0.7-0.7C27.7,6,27.7,5.4,27.7,4.8z M67.3,36.7c0-0.6,0-1.2,0-1.8c0-0.5-0.2-0.7-0.7-0.7
		c-0.6,0-1.2,0-1.8,0c-0.5,0-0.7,0.3-0.7,0.7c0,1.2,0,2.4,0,3.5c0,0.5,0.3,0.7,0.7,0.7c0.6,0,1.2,0,1.8,0c0.4,0,0.7-0.3,0.7-0.7
		C67.3,37.9,67.3,37.3,67.3,36.7z M81.1,36.7C81.1,36.7,81.1,36.7,81.1,36.7c0,0.6,0,1.2,0,1.8c0,0.4,0.3,0.7,0.6,0.7
		c0.6,0,1.3,0,1.9,0c0.3,0,0.6-0.2,0.6-0.5c0-0.1,0-0.2,0-0.3c0-1.1,0-2.2,0-3.3c0-0.1,0-0.1,0-0.2c0-0.4-0.3-0.6-0.7-0.6
		c-0.6,0-1.3,0-1.9,0c-0.2,0-0.3,0-0.4,0.1c-0.2,0.1-0.2,0.3-0.2,0.5C81.1,35.5,81.1,36.1,81.1,36.7z M160.4,36.7
		C160.4,36.7,160.4,36.7,160.4,36.7c0,0.6,0,1.2,0,1.7c0,0.1,0,0.2,0,0.3c0.1,0.3,0.3,0.4,0.6,0.4c0.6,0,1.2,0,1.8,0
		c0.5,0,0.7-0.4,0.7-0.7c0-0.3,0-0.5,0-0.8c0-0.9,0-1.8,0-2.7c0-0.5-0.2-0.7-0.7-0.8c-0.4,0-0.7,0-1.1,0c-0.3,0-0.5,0-0.8,0
		c-0.2,0-0.4,0.1-0.5,0.3c-0.1,0.1-0.1,0.3-0.1,0.4C160.4,35.5,160.4,36.1,160.4,36.7z M146.6,36.7c0-0.6,0-1.2,0-1.8
		c0-0.5-0.2-0.7-0.7-0.7c-0.6,0-1.2,0-1.8,0c-0.5,0-0.7,0.4-0.7,0.7c0,1.2,0,2.3,0,3.5c0,0.5,0.3,0.7,0.7,0.7c0.6,0,1.2,0,1.8,0
		c0.4,0,0.7-0.3,0.7-0.7C146.6,37.9,146.6,37.3,146.6,36.7z M120.8,36.7C120.8,36.7,120.8,36.7,120.8,36.7c0,0.6,0,1.2,0,1.8
		c0,0.4,0.3,0.6,0.6,0.7c0.6,0,1.3,0,1.9,0c0.3,0,0.6-0.2,0.6-0.5c0-0.1,0-0.2,0-0.3c0-1.1,0-2.2,0-3.3c0-0.1,0-0.2,0-0.3
		c-0.1-0.3-0.3-0.5-0.6-0.5c-0.6,0-1.3,0-1.9,0c-0.2,0-0.3,0.1-0.4,0.2c-0.1,0.1-0.2,0.3-0.2,0.5C120.8,35.5,120.8,36.1,120.8,36.7z
		 M27.7,36.7c0-0.6,0-1.2,0-1.8c0-0.5-0.2-0.7-0.7-0.7c-0.6,0-1.2,0-1.8,0c-0.5,0-0.7,0.3-0.7,0.7c0,1.2,0,2.4,0,3.5
		c0,0.5,0.3,0.7,0.7,0.7c0.6,0,1.2,0,1.8,0c0.4,0,0.7-0.3,0.7-0.7C27.7,37.9,27.7,37.3,27.7,36.7z M41.5,36.7
		C41.5,36.7,41.5,36.7,41.5,36.7c0,0.6,0,1.2,0,1.8c0,0.4,0.3,0.6,0.6,0.6c0.7,0,1.3,0,2,0c0.3,0,0.5-0.2,0.6-0.5c0-0.1,0-0.2,0-0.3
		c0-1.1,0-2.2,0-3.3c0-0.1,0-0.2,0-0.3c-0.1-0.3-0.3-0.5-0.6-0.5c-0.7,0-1.3,0-2,0c-0.2,0-0.4,0.1-0.5,0.3c-0.1,0.1-0.1,0.3-0.1,0.4
		C41.5,35.5,41.5,36.1,41.5,36.7z M7.5,4.8c0,0.6,0,1.2,0,1.8c0,0.4,0.3,0.7,0.7,0.7c0.3,0,0.7,0,1,0c0.3,0,0.6,0,0.9,0
		c0.3,0,0.6-0.2,0.6-0.5c0-0.1,0-0.2,0-0.3c0-1.1,0-2.1,0-3.2c0-0.1,0-0.2,0-0.3c-0.1-0.3-0.3-0.5-0.6-0.5c-0.7,0-1.3,0-2,0
		C8,2.3,7.8,2.4,7.7,2.5C7.6,2.7,7.5,2.8,7.5,3C7.5,3.6,7.5,4.2,7.5,4.8z M107,36.7c0-0.6,0-1.2,0-1.8c0-0.5-0.2-0.7-0.7-0.7
		c-0.6,0-1.2,0-1.8,0c-0.5,0-0.7,0.3-0.7,0.7c0,1.2,0,2.4,0,3.5c0,0.5,0.3,0.7,0.7,0.7c0.6,0,1.2,0,1.8,0c0.4,0,0.7-0.3,0.7-0.7
		C107,37.9,107,37.3,107,36.7z M1.9,36.7C1.9,36.7,1.9,36.7,1.9,36.7c0,0.6,0,1.2,0,1.8c0,0.4,0.3,0.6,0.6,0.7c0.6,0,1.3,0,1.9,0
		c0.3,0,0.6-0.2,0.6-0.5c0-0.1,0-0.2,0-0.3c0-1.1,0-2.2,0-3.3c0-0.1,0-0.2,0-0.3c-0.1-0.3-0.3-0.5-0.6-0.5c-0.6,0-1.3,0-1.9,0
		c-0.2,0-0.3,0.1-0.4,0.2c-0.1,0.1-0.2,0.3-0.2,0.5C1.9,35.5,1.9,36.1,1.9,36.7z M7.5,36.7c0,0.3,0,0.5,0,0.8c0,0.4,0,0.7,0,1.1
		c0,0.3,0.3,0.6,0.6,0.6c0.7,0,1.3,0,2,0c0.3,0,0.5-0.2,0.6-0.5c0-0.1,0-0.2,0-0.4c0-1.1,0-2.2,0-3.2c0-0.1,0-0.2,0-0.4
		c-0.1-0.3-0.3-0.5-0.5-0.5c-0.7,0-1.4,0-2.1,0c-0.3,0-0.5,0.3-0.6,0.6c0,0.1,0,0.2,0,0.3C7.5,35.6,7.5,36.2,7.5,36.7z M61.7,4.8
		c0-0.6,0-1.2,0-1.8c0-0.4-0.2-0.7-0.7-0.7c-0.6,0-1.2,0-1.8,0c-0.5,0-0.7,0.2-0.7,0.7c0,1.2,0,2.4,0,3.6c0,0.5,0.2,0.7,0.7,0.7
		c0.6,0,1.2,0,1.8,0c0.4,0,0.7-0.2,0.7-0.7C61.7,6,61.7,5.4,61.7,4.8z M47.2,4.8C47.2,4.8,47.2,4.8,47.2,4.8c0,0.6,0,1.2,0,1.8
		c0,0.4,0.3,0.6,0.6,0.6c0.6,0,1.3,0,1.9,0c0.4,0,0.6-0.2,0.6-0.6c0-0.1,0-0.2,0-0.3c0-1,0-2,0-3c0-0.1,0-0.3,0-0.4
		c0-0.3-0.2-0.6-0.6-0.6c-0.7,0-1.3,0-2,0c-0.3,0-0.6,0.3-0.6,0.6c0,0.1,0,0.2,0,0.3C47.2,3.7,47.2,4.2,47.2,4.8z M140.9,4.8
		C140.9,4.8,140.9,4.8,140.9,4.8c0-0.6,0-1.2,0-1.8c0-0.4-0.2-0.6-0.6-0.7c0,0,0,0-0.1,0c-0.6,0-1.2,0-1.8,0c0,0-0.1,0-0.1,0
		c-0.3,0-0.5,0.2-0.6,0.6c0,0.1,0,0.1,0,0.2c0,1.1,0,2.3,0,3.4c0,0.1,0,0.2,0,0.3c0,0.3,0.2,0.5,0.5,0.5c0.1,0,0.1,0,0.2,0
		c0.6,0,1.2,0,1.7,0c0.4,0,0.7-0.3,0.7-0.7C140.9,6,140.9,5.4,140.9,4.8z M86.8,4.8C86.8,4.8,86.8,4.8,86.8,4.8c0,0.6,0,1.2,0,1.8
		c0,0.4,0.3,0.6,0.6,0.6c0.6,0,1.3,0,1.9,0C89.7,7.3,90,7,90,6.6c0-0.2,0-0.3,0-0.5C90,5.1,90,4,90,3c0-0.5-0.3-0.7-0.7-0.7
		c-0.2,0-0.5,0-0.7,0c-0.4,0-0.8,0-1.1,0c-0.3,0-0.4,0.1-0.6,0.4c-0.1,0.1-0.1,0.2-0.1,0.4C86.8,3.6,86.8,4.2,86.8,4.8z M101.3,4.8
		C101.3,4.8,101.3,4.8,101.3,4.8c0-0.6,0-1.2,0-1.8c0-0.4-0.2-0.6-0.6-0.6c0,0,0,0-0.1,0c-0.6,0-1.2,0-1.8,0c0,0-0.1,0-0.1,0
		c-0.3,0-0.5,0.2-0.5,0.5c0,0.1,0,0.2,0,0.3c0,1,0,2,0,3c0,0.1,0,0.3,0,0.4c0,0.4,0.3,0.6,0.6,0.6c0.6,0,1.3,0,1.9,0
		c0.4,0,0.6-0.3,0.6-0.6c0-0.1,0-0.2,0-0.2C101.3,5.9,101.3,5.3,101.3,4.8z M126.4,4.8C126.4,4.8,126.4,4.8,126.4,4.8
		c0,0.6,0,1.2,0,1.8c0,0.4,0.2,0.7,0.7,0.7c0.5,0,1.1,0,1.6,0c0.1,0,0.2,0,0.3,0c0.4,0,0.6-0.2,0.6-0.6c0-0.1,0-0.2,0-0.3
		c0-0.9,0-1.9,0-2.8c0-0.2,0-0.5,0-0.7c0-0.4-0.2-0.6-0.6-0.6c-0.7,0-1.3,0-2,0c-0.3,0-0.6,0.3-0.6,0.6c0,0.1,0,0.2,0,0.3
		C126.4,3.7,126.4,4.2,126.4,4.8z M18.9,4.8c0,0.4,0,0.8,0,1.3c0,0.2,0,0.4,0,0.6c0,0.4,0.3,0.6,0.6,0.6c0.7,0,1.3,0,2,0
		C21.8,7.2,22,7,22,6.7c0-0.1,0-0.2,0-0.3c0-0.8,0-1.6,0-2.3c0-0.4,0-0.8,0-1.1c0-0.3-0.2-0.6-0.6-0.6c-0.1,0-0.1,0-0.2,0
		c-0.6,0-1.1,0-1.7,0c-0.1,0-0.1,0-0.2,0c-0.3,0-0.5,0.2-0.5,0.5c0,0.1,0,0.2,0,0.3C18.9,3.7,18.9,4.2,18.9,4.8z M56,36.7
		c0-0.6,0-1.1,0-1.7c0-0.1,0-0.2,0-0.3c0-0.3-0.2-0.5-0.5-0.5c-0.1,0-0.2,0-0.3,0c-0.5,0-1,0-1.6,0c-0.5,0-0.8,0.2-0.8,0.8
		c0,1.1,0,2.2,0,3.3c0,0.1,0,0.2,0,0.2c0,0.3,0.3,0.5,0.6,0.6c0,0,0.1,0,0.1,0c0.6,0,1.2,0,1.7,0c0.5,0,0.7-0.2,0.7-0.7
		C56,37.9,56,37.3,56,36.7z M132.1,36.7C132.1,36.7,132.1,36.7,132.1,36.7c0,0.6,0,1.2,0,1.8c0,0.4,0.2,0.6,0.6,0.6c0.7,0,1.3,0,2,0
		c0.3,0,0.6-0.3,0.6-0.6c0-0.1,0-0.1,0-0.2c0-1.1,0-2.2,0-3.3c0-0.1,0-0.2,0-0.3c0-0.3-0.2-0.5-0.5-0.5c-0.1,0-0.2,0-0.3,0
		c-0.5,0-1,0-1.5,0c-0.1,0-0.2,0-0.3,0c-0.3,0-0.5,0.2-0.6,0.6c0,0.1,0,0.2,0,0.3C132.1,35.6,132.1,36.2,132.1,36.7z M95.6,36.7
		c0-0.6,0-1.2,0-1.8c0-0.2-0.1-0.4-0.3-0.6c-0.1-0.1-0.2-0.1-0.4-0.1c-0.6,0-1.2,0-1.8,0c-0.4,0-0.7,0.2-0.7,0.7c0,1.2,0,2.4,0,3.6
		c0,0.4,0.2,0.7,0.7,0.7c0.6,0,1.2,0,1.8,0c0,0,0,0,0,0c0.4,0,0.6-0.3,0.6-0.6C95.6,37.9,95.6,37.3,95.6,36.7z M16.4,36.7
		C16.4,36.7,16.4,36.7,16.4,36.7c0-0.6,0-1.2,0-1.8c0-0.2,0-0.3-0.1-0.4c-0.1-0.2-0.3-0.3-0.6-0.3c-0.6,0-1.2,0-1.8,0
		c-0.4,0-0.7,0.2-0.7,0.7c0,1.2,0,2.4,0,3.6c0,0.5,0.2,0.7,0.7,0.7c0.6,0,1.2,0,1.8,0c0.5,0,0.7-0.2,0.7-0.7
		C16.4,37.9,16.4,37.3,16.4,36.7z M56,4.8C56,4.8,56,4.8,56,4.8c0-0.6,0-1.2,0-1.8c0-0.4-0.3-0.7-0.7-0.7c-0.6,0-1.2,0-1.8,0
		c-0.4,0-0.7,0.2-0.7,0.7c0,1.2,0,2.4,0,3.6c0,0.4,0.2,0.7,0.7,0.7c0.6,0,1.2,0,1.8,0c0.1,0,0.2,0,0.2,0C55.8,7.1,56,6.9,56,6.6
		C56,6,56,5.4,56,4.8z M135.3,4.8C135.3,4.8,135.3,4.8,135.3,4.8c0-0.6,0-1.2,0-1.8c0-0.4-0.3-0.7-0.7-0.7c-0.6,0-1.2,0-1.8,0
		c-0.4,0-0.7,0.2-0.7,0.7c0,1.2,0,2.4,0,3.6c0,0.4,0.2,0.7,0.7,0.7c0.6,0,1.2,0,1.8,0c0.1,0,0.2,0,0.2,0c0.3-0.1,0.4-0.3,0.4-0.6
		C135.3,6,135.3,5.4,135.3,4.8z M95.6,4.8C95.6,4.8,95.6,4.8,95.6,4.8c0-0.3,0-0.6,0-0.9c0-0.3,0-0.7,0-1c0-0.4-0.2-0.6-0.6-0.6
		c-0.1,0-0.2,0-0.3,0c-0.5,0-1,0-1.5,0c-0.6,0-0.9,0.2-0.9,0.8c0,1.1,0,2.2,0,3.3c0,0.1,0,0.2,0,0.3c0,0.3,0.2,0.5,0.5,0.5
		c0.1,0,0.1,0,0.2,0c0.6,0,1.2,0,1.7,0c0.5,0,0.7-0.2,0.7-0.7C95.6,6,95.6,5.4,95.6,4.8z M16.4,4.8c0-0.5,0-1.1,0-1.6
		c0-0.1,0-0.2,0-0.2c0-0.4-0.2-0.6-0.6-0.6c-0.1,0-0.2,0-0.2,0c-0.5,0-1,0-1.5,0c-0.6,0-0.8,0.2-0.8,0.8c0,1.1,0,2.2,0,3.3
		c0,0.1,0,0.2,0,0.3c0,0.3,0.2,0.5,0.5,0.5c0.1,0,0.1,0,0.2,0c0.6,0,1.2,0,1.7,0c0.5,0,0.7-0.2,0.7-0.7C16.4,6,16.4,5.4,16.4,4.8z
		 M47.2,36.7C47.2,36.7,47.2,36.7,47.2,36.7c0,0.6,0,1.2,0,1.8c0,0.4,0.3,0.7,0.7,0.7c0.6,0,1.2,0,1.9,0c0.4,0,0.6-0.2,0.6-0.6
		c0-0.1,0-0.1,0-0.2c0-1.1,0-2.2,0-3.3c0-0.1,0-0.2,0-0.2c0-0.3-0.2-0.6-0.6-0.6c-0.7,0-1.3,0-2,0c-0.2,0-0.3,0.1-0.5,0.2
		c-0.1,0.1-0.1,0.3-0.1,0.4C47.2,35.5,47.2,36.1,47.2,36.7z M129.6,36.7C129.6,36.7,129.6,36.7,129.6,36.7c0-0.6,0-1.2,0-1.8
		c0-0.4-0.2-0.6-0.6-0.6c-0.7,0-1.3,0-2,0c-0.2,0-0.3,0.1-0.4,0.2c-0.1,0.1-0.2,0.3-0.2,0.5c0,0.6,0,1.2,0,1.8c0,0.6,0,1.2,0,1.8
		c0,0.4,0.3,0.6,0.6,0.6c0.6,0,1.3,0,1.9,0c0.2,0,0.3-0.1,0.4-0.2c0.2-0.1,0.2-0.3,0.2-0.5C129.6,37.9,129.6,37.3,129.6,36.7z
		 M86.8,36.7C86.8,36.7,86.8,36.7,86.8,36.7c0,0.6,0,1.2,0,1.8c0,0.4,0.3,0.6,0.7,0.6c0.2,0,0.3,0,0.5,0c0.5,0,0.9,0,1.4,0
		c0.3,0,0.6-0.2,0.6-0.5c0-0.1,0-0.2,0-0.3c0-0.8,0-1.6,0-2.4c0-0.4,0-0.8,0-1.2c0-0.4-0.2-0.6-0.6-0.6c-0.7,0-1.3,0-2,0
		c-0.2,0-0.3,0.1-0.4,0.2c-0.1,0.1-0.2,0.3-0.2,0.5C86.8,35.5,86.8,36.1,86.8,36.7z M58.5,36.7C58.5,36.7,58.5,36.7,58.5,36.7
		c0,0.6,0,1.2,0,1.8c0,0.5,0.2,0.7,0.7,0.7c0.6,0,1.2,0,1.8,0c0.5,0,0.7-0.2,0.7-0.7c0-1.2,0-2.4,0-3.6c0-0.4-0.2-0.7-0.7-0.7
		c-0.4,0-0.8,0-1.2,0c-0.2,0-0.5,0-0.7,0c-0.3,0-0.5,0.2-0.6,0.5c0,0.1,0,0.2,0,0.3C58.5,35.6,58.5,36.2,58.5,36.7z M140.9,36.7
		c0-0.3,0-0.6,0-0.9s0-0.6,0-0.9c0-0.4-0.2-0.6-0.6-0.6c-0.1,0-0.1,0-0.2,0c-0.5,0-1,0-1.5,0c-0.6,0-0.8,0.3-0.8,0.8
		c0,1.1,0,2.2,0,3.3c0,0.1,0,0.2,0,0.3c0,0.3,0.3,0.5,0.6,0.6c0,0,0.1,0,0.1,0c0.6,0,1.2,0,1.7,0c0.5,0,0.7-0.2,0.7-0.7
		C140.9,37.9,140.9,37.3,140.9,36.7z M101.3,36.7c0-0.2,0-0.4,0-0.6c0-0.4,0-0.8,0-1.2c0-0.4-0.2-0.6-0.6-0.6c-0.1,0-0.1,0-0.2,0
		c-0.5,0-1,0-1.5,0c-0.6,0-0.8,0.3-0.8,0.8c0,1.1,0,2.2,0,3.3c0,0.1,0,0.2,0,0.3c0,0.2,0.1,0.4,0.3,0.5c0.1,0.1,0.2,0.1,0.4,0.1
		c0.6,0,1.2,0,1.8,0c0.5,0,0.7-0.2,0.7-0.7C101.3,37.9,101.3,37.3,101.3,36.7z M22.1,36.7c0-0.6,0-1.2,0-1.8c0-0.4-0.3-0.7-0.7-0.7
		c-0.6,0-1.2,0-1.8,0c-0.5,0-0.7,0.2-0.7,0.7c0,1.2,0,2.4,0,3.6c0,0.5,0.2,0.7,0.7,0.7c0.6,0,1.2,0,1.8,0c0.5,0,0.7-0.2,0.7-0.7
		C22.1,37.9,22.1,37.3,22.1,36.7z"/>
</g>
</svg>
