<?xml version="1.0" encoding="utf-8"?>
<!-- Generator: Adobe Illustrator 25.0.1, SVG Export Plug-In . SVG Version: 6.00 Build 0)  -->
<svg version="1.1" id="Layer_1" xmlns="http://www.w3.org/2000/svg" xmlns:xlink="http://www.w3.org/1999/xlink" x="0px" y="0px"
	 viewBox="0 0 124.1 140.7" style="enable-background:new 0 0 124.1 140.7;" xml:space="preserve">
<style type="text/css">
	.Drop_x0020_Shadow{fill:none;}
	.Outer_x0020_Glow_x0020_5_x0020_pt{fill:none;}
	.Blue_x0020_Neon{fill:none;stroke:#8AACDA;stroke-width:7;stroke-linecap:round;stroke-linejoin:round;}
	.Chrome_x0020_Highlight{fill:url(#SVGID_1_);stroke:#FFFFFF;stroke-width:0.3629;stroke-miterlimit:1;}
	.Jive_GS{fill:#FFDD00;}
	.Alyssa_GS{fill:#A6D0E4;}
	.st0{fill:none;}
	.st1{fill:#030303;stroke:#030303;stroke-width:2.026713e-02;}
	.st2{fill-rule:evenodd;clip-rule:evenodd;}
	.st3{fill:#0A0B09;}
</style>
<linearGradient id="SVGID_1_" gradientUnits="userSpaceOnUse" x1="-243.0559" y1="-60.2218" x2="-243.0559" y2="-61.2218">
	<stop  offset="0" style="stop-color:#656565"/>
	<stop  offset="0.618" style="stop-color:#1B1B1B"/>
	<stop  offset="0.6292" style="stop-color:#545454"/>
	<stop  offset="0.9831" style="stop-color:#3E3E3E"/>
</linearGradient>
<path class="st3" d="M40.9,88.9l0.2,3.1c-1.8,0.1-3.6,0.3-5.2,0.4l-0.3-3.1C37.3,89.2,39.1,89.1,40.9,88.9 M49.3,88.4l0.2,3.1
	c-1.8,0.1-3.6,0.2-5.2,0.3l-0.2-3.1C45.7,88.6,47.5,88.5,49.3,88.4 M32.5,89.7l0.3,3.1c-1.8,0.2-3.6,0.4-5.1,0.6l-0.5-3.1
	C28.9,90.1,30.6,89.9,32.5,89.7 M15.7,93l1.1,2.9c-1.7,0.6-3.1,1.3-4.4,2.1l-1.7-2.6C12.2,94.5,13.8,93.7,15.7,93 M57.7,87.9
	l0.1,3.1c-1.8,0.1-3.6,0.2-5.2,0.3l-0.2-3.1C54.1,88.1,55.9,88,57.7,87.9 M24.1,90.9l0.6,3.1c-1.9,0.3-3.5,0.7-5,1.1l-0.8-3
	C20.4,91.6,22.2,91.2,24.1,90.9 M99.3,84.6l0.5,3.1c-1.6,0.3-3.4,0.5-5.2,0.7l-0.4-3.1C96,85.1,97.7,84.9,99.3,84.6 M107.4,83l0.8,3
	c-1.6,0.4-3.3,0.8-5.2,1.2l-0.6-3.1C104.2,83.7,105.9,83.4,107.4,83 M66.1,87.6l0.2,3.1c-1.4,0.1-2.9,0.1-4.4,0.2l-0.8,0l-0.1-3.1
	l0.8,0C63.2,87.7,64.7,87.6,66.1,87.6 M111.3,85.1l-1-3c1.7-0.6,3.2-1.2,4.5-2l1.5,2.7C114.9,83.7,113.2,84.4,111.3,85.1 M74.5,87.1
	l0.2,3.1c-1.7,0.1-3.5,0.2-5.2,0.3l-0.2-3.1C71,87.3,72.8,87.2,74.5,87.1 M82.8,86.5l0.3,3.1c-1.7,0.1-3.4,0.3-5.2,0.4l-0.2-3.1
	C79.4,86.8,81.1,86.6,82.8,86.5 M91.1,85.7l0.3,3.1c-1.6,0.2-3.4,0.4-5.2,0.5l-0.3-3.1C87.7,86.1,89.5,85.9,91.1,85.7 M54.9,54
	l-0.2-3.1c1.6-0.1,3.4-0.2,5.1-0.3l0.2,3.1C58.2,53.8,56.5,53.9,54.9,54 M30.8,56.4l-0.4-3.1c1.6-0.2,3.3-0.5,5.1-0.7l0.4,3.1
	C34,56,32.4,56.2,30.8,56.4 M7.9,62.5l-1.5-2.7c1.4-0.8,3-1.5,4.9-2.2l1.1,2.9C10.6,61.2,9.1,61.8,7.9,62.5 M15.1,59.6l-0.9-3
	c1.5-0.5,3.2-0.9,5-1.3l0.7,3.1C18.2,58.8,16.6,59.2,15.1,59.6 M103.6,49l-0.7-3.1c1.7-0.4,3.4-0.8,4.8-1.2l0.9,3
	C107.1,48.2,105.4,48.6,103.6,49 M95.5,50.5L95,47.4c1.7-0.3,3.4-0.6,4.9-0.8l0.6,3.1C99,50,97.3,50.3,95.5,50.5 M111.6,46.7
	l-1.1-2.9c1.7-0.6,3.1-1.3,4.3-2l1.6,2.7C115,45.3,113.4,46.1,111.6,46.7 M79.3,52.4L79,49.3c1.7-0.2,3.4-0.3,5-0.5l0.3,3.1
	C82.7,52.1,81,52.2,79.3,52.4 M87.4,51.6L87,48.5c1.7-0.2,3.4-0.4,5-0.6l0.4,3.1C90.8,51.2,89.1,51.4,87.4,51.6 M63,53.5l-0.2-3.1
	c1.7-0.1,3.4-0.2,5.1-0.3l0.2,3.1C66.4,53.3,64.7,53.4,63,53.5 M71.1,53l-0.2-3.1c1.7-0.1,3.4-0.2,5-0.4l0.2,3.1
	C74.6,52.8,72.9,52.9,71.1,53 M46.8,54.6l-0.3-3.1c1.6-0.1,3.3-0.3,5.1-0.4l0.2,3.1C50.2,54.4,48.5,54.5,46.8,54.6 M38.8,55.4
	l-0.3-3.1c1.6-0.2,3.3-0.3,5.1-0.5l0.3,3.1C42.1,55.1,40.4,55.2,38.8,55.4 M22.9,57.7l-0.6-3.1c1.6-0.3,3.3-0.6,5.1-0.9l0.5,3.1
	C26.1,57.1,24.4,57.4,22.9,57.7 M119.5,112.5l-8.2,18.2c-6.1-5.2-10.9-7-18.3-10.1l7-19.8C107.4,102.5,114.6,106.1,119.5,112.5
	 M91.2,119.8c-5.9-1.9-12.9-3.1-20.6-4.5l4.6-19.4c7,0.6,18.1,2.3,23.1,4.5L91.2,119.8 M32.1,21.2c7.5,2.5,15,4.4,21.1,5.5l-3.7,20
	c-6.1-0.9-15.2-1.9-22.9-4.4L32.1,21.2 M24.4,41.8c-5.3-0.9-13.1-4-20.2-10.4l6.7-19.5c7,3.5,13.3,6.6,19.1,8.6L24.4,41.8
	 M47.6,56.4l4.4,30.2c-10.3,0.7-20.2,1.6-28.1,3.2l-5.5-29.5C26.5,58.5,37,57.3,47.6,56.4 M81,53.9c7.9-0.7,16.9-1.4,22.9-2.5
	l3.8,30.3c-5.9,1.5-13.7,2.4-22.1,3.1L81,53.9 M50.7,56.1c8.7-0.7,18.6-1.4,27.1-2.1L82,84.9c-8.4,0.6-17.3,1-26.1,1.5L50.7,56.1
	 M86.7,93.2c1.5,0.2,3,0.4,4.4,0.7l-0.5,2.7c-1.4-0.2-2.8-0.4-4.3-0.6L86.7,93.2 M9.9,110l1.7-2.2c0.9,0.6,2.1,1.2,3.7,1.8l-0.9,2.6
	C12.5,111.5,11,110.8,9.9,110 M112.5,133.5c-0.4-0.4-0.8-0.8-1.2-1.2l-0.2-0.2l-2.1,3l0.1,0.1c0.6,0.6,1,1,1.4,1.4l0.3,0.3
	c-0.3,0.6-0.5,1.1-0.7,1.5c-3.1-4.9-10.3-9.2-20.9-12.7c-10.9-3.6-24.8-6-40.1-7.1c-21.1-1.4-31.7-4.1-36.8-6.9
	c0.6,0.3,1.3,0.5,2.1,0.8l0.2,0.1l1.1-3.4l-0.2-0.1c-1.7-0.6-3.1-1.2-4-1.9l-0.2-0.1l-1.9,2.5c-0.6-0.7-1-1.4-1.2-2
	c-0.1-0.4-0.1-0.8-0.1-1.1l1.6-0.5c2.9,1.6,7.9,3.6,13.3,3.6l1.4-13.3c0.5-0.1,1.1-0.2,1.6-0.3l-1.6,13.6c5.9,1.4,15.2,2.7,21.2,2.7
	L49,94.2c0.8,0,1.5-0.1,2.3-0.1l-3.5,18.7c7.9,0.2,14.9,1.2,21,2.2l4.4-19.1c-3.2-1.1-7.2-1.9-12.1-2.3c3.1-0.1,6.2-0.3,9.3-0.4
	l-0.1,1.3l0.2,0c0.4,0,1.6,0.2,2.6,0.4c1,0.2,2,0.3,2.4,0.3l0.2,0l0.2-2.4c0.3,0,0.7,0,1-0.1l0,0c0.4,0,0.9-0.1,1.5-0.1l-0.2,2.7
	l0.2,0c1.6,0.1,3.2,0.3,4.7,0.5l0.2,0l0.4-3.2c0.8,0,1.6,0,2.5,0.1l-0.5,3.5l0.2,0c1.6,0.2,3.2,0.5,4.7,0.7l0.2,0l0.6-3.5l-0.2,0
	c-1.4-0.2-2.8-0.5-4.3-0.7c4.2,0.2,9.3,0.8,14.4,2.1c10,2.5,17.3,6.7,21.6,12.6c0,0.4-0.1,1.1-0.3,1.8c-0.1-0.2-0.3-0.4-0.4-0.6
	c-0.2-0.2-0.3-0.4-0.5-0.6l-0.2-0.2l-2.2,2.6l0.1,0.1c0.4,0.5,1.3,1.8,1.8,2.7C119.2,119.2,115.2,127.9,112.5,133.5 M111.1,136.6
	L111.1,136.6l-0.2-0.2c-0.3-0.4-0.7-0.7-1.3-1.3l1.6-2.3c0.3,0.3,0.7,0.7,1.1,1.1C111.9,134.9,111.4,135.8,111.1,136.6 M70.9,93.1
	c1.6-0.1,3.1-0.2,4.7-0.3l-0.1,1.9c-0.5-0.1-1.3-0.2-2.1-0.3c-1-0.1-1.9-0.3-2.5-0.3L70.9,93.1 M83.4,92.8L83,95.5
	c-1.4-0.2-2.9-0.3-4.3-0.4l0.2-2.3c1,0,2.2-0.1,3.5-0.1C82.8,92.7,83.1,92.7,83.4,92.8 M26.9,51.9c11.7-1.9,25.9-2.8,39.6-3.6
	c5.5-0.3,11-0.7,16.2-1.1c0.9,0,1.7-0.1,2.6-0.2c15.5-1.3,28.2-3.3,32.6-7.8c0.8-0.9,1.4-1.7,1.9-2.5c0,0.3,0,0.7,0,1.1
	c-0.6,0.6-1.5,2-2.2,2.5l1.5,1.9c0.5-0.4,0.6-0.6,0.7-0.8c0,0.2,0,0.4,0,0.7c-1.5,4.3-7.3,6.8-12.9,8.2l3.7,30.8
	c3.3-1.2,8.1-4.7,9.9-6.9c0,0.7,0,1.4,0,2c-0.9,0.7-2.7,1.8-3.3,2.3l2.1,2.4c-5.6,7.8-26.8,10-48.6,11.2c0,0-0.1,0-0.1,0l-0.2,0l0,0
	c-4,0.2-8,0.4-12,0.6c-19.8,0.9-38.4,1.7-45.2,6.1c-1.6,1.1-3.8,2.8-5.1,4.8c0-0.3-0.1-0.8-0.1-1.4c0.6-0.7,1.6-1.9,2.1-2.4L8,97.6
	c-0.2,0.2-0.3,0.3-0.4,0.4c0-0.4-0.1-0.8-0.1-1.3c2.7-2.3,7.8-4.7,12.6-6l-5.3-29.3c-4.2,1.3-8.8,3.7-11.2,5.7
	c-0.1-0.5-0.2-1-0.2-1.5c0.5-0.6,1.5-1.5,2.1-1.9l-1.9-2.5c-0.4,0.3-0.6,0.5-0.8,0.7c0-0.2-0.1-0.3-0.1-0.5
	C6,57.2,14,54.1,26.9,51.9 M38.7,49.4l0.3-2.7c1.7,0.2,3.4,0.4,5.1,0.5l-0.4,1.7C42,49,40.3,49.2,38.7,49.4L38.7,49.4 M50.1,48.4
	c-0.8,0.1-1.5,0.1-2.3,0.2l0.1-1.1c0.7,0,1.5,0.1,2.2,0.1V48.4 M116.7,38.8c0.1-1.3-0.3-3.1-0.6-3.8l2.3-1.6
	c0.3,0.9,0.4,1.9,0.4,2.8c-0.4,0.7-1,1.5-1.8,2.3l0,0L116.7,38.8 M8.6,42.9c-4.2-2.4-6.8-5.4-7.4-8.2c0.2,0.3,0.4,0.5,0.5,0.8
	c0.2,0.3,0.3,0.5,0.5,0.7l0.2,0.2l2.1-2.7l-0.1-0.1c-0.1-0.2-0.4-0.6-0.8-1c-0.5-0.7-1.3-1.7-1.5-2.1L9.9,7.7
	c0.4,0.4,0.8,0.8,1.4,1.3l0.2,0.2l1.7-3.2l-0.1-0.1c-0.8-0.7-1.6-1.3-2-1.7l0.5-1.6c4.9,7,19.3,11.9,30.8,14.9
	c15.1,3.9,33.6,6.6,50.9,7.4c3.9,0.2,9.5,0.6,14.7,1.7c6.4,1.3,10.4,3.3,11.3,5.7c0.2,0.5,0.3,1.1,0.2,1.7h0c0,0,0,0,0,0.1
	c-0.1,0.5-0.2,1-0.4,1.5c0-0.8-0.2-1.6-0.5-2.4l-0.1-0.2l-3.1,2l0.1,0.2c0.2,0.5,0.9,2.9,0.5,4.2l0,0.1c-0.4,0.3-0.8,0.6-1.3,0.9
	l-0.8-6.2c-0.8-0.7-3.8-1.5-11.6-2.5l-0.6,12.6c-0.8,0.1-1.7,0.3-2.6,0.4l0.4-13.4c-6.2,0-13.6-0.7-21.5-1.8l-0.5,17.2
	c-0.9,0.1-1.8,0.1-2.7,0.2l1.1-17.1c-6.1-0.4-13-1.4-20.9-2.2l-3.2,20.5c0.4,0.1,0.8,0.1,1.2,0.2c-1,0.1-1.9,0.1-2.8,0.2v-1.2
	l-0.2,0c-0.9,0-1.7-0.1-2.6-0.1l-0.2,0l-0.1,1.6c-1.1,0.1-2.2,0.2-3.2,0.3l0.5-2.1l-0.2,0c-1.9-0.1-3.8-0.3-5.5-0.5l-0.2,0l-0.4,3.2
	c-1.2,0.1-2.4,0.3-3.6,0.4C20.8,48.6,12.9,45.4,8.6,42.9 M1,33.7L1.9,31c0.3,0.5,0.8,1.1,1.3,1.8c0.3,0.4,0.5,0.7,0.7,0.9l-1.6,2
	c-0.1-0.2-0.2-0.3-0.3-0.5C1.7,34.8,1.3,34.2,1,33.7L1,33.7 M11,4.5C11.5,5,12.3,5.6,12.7,6l-1.3,2.5c-0.6-0.5-1-0.9-1.4-1.2L11,4.5
	 M121.6,112.8c-0.5-0.8-1.2-1.8-1.6-2.3l1.6-1.9c0.1,0.2,0.2,0.3,0.4,0.5c0.2,0.3,0.4,0.5,0.6,0.8
	C122.3,110.6,122,111.6,121.6,112.8 M124.1,107.3l0-0.2L124,107c-4.5-6.2-12-10.6-22.3-13.1c-4.7-1.2-9.2-1.8-13.2-2
	c3.8-0.4,7.5-0.9,10.9-1.4c13.5-2.3,20.8-6.1,22.3-11.7l0-0.1v-0.1c0-6-0.8-41.8-0.9-44.6c0.1-0.8,0-1.5-0.3-2.2
	c-2.4-6-17.9-7.7-27-8.1c-17.2-0.8-35.7-3.5-50.7-7.4C26.1,12.1,15.1,6.6,12,1l-0.6-1L0,33.4l0,0.1v0.1c0,3.5,2.9,7.2,8.1,10.2
	c5.4,3.2,13,5.4,22.1,6.6C16.7,52.3,5.9,55.4,1.7,61l-0.1,0.2l0,0.2c2.9,16,5.3,42.4,5.6,45.8c0,0,0,0.1,0,0.1c0,0.1,0,0.2,0,0.2
	l0,0c0,0.2,0.1,0.3,0.1,0.5c1.6,6.1,15.6,10,41.7,11.8c31.4,2.1,55.2,10,60.6,20.1l0.5,0.9l0.4-0.9c0.1-0.3,1.2-2.4,2.6-5.4l0,0l0,0
	C117.2,126.1,124.1,111,124.1,107.3 M25.9,47.2c-1.8-0.4-3.5-0.8-5.1-1.3l0.8-2.6c1.6,0.5,3.3,0.9,5,1.3L25.9,47.2 M21.4,42.8
	l-0.2-0.1l-1,3.4l0.2,0.1c1.8,0.5,3.6,1,5.6,1.4l0.2,0l0.8-3.5l-0.2,0C24.9,43.8,23.1,43.3,21.4,42.8 M29.6,48l0.5-2.7
	c1.6,0.3,3.3,0.6,5.1,0.8l-0.4,2.7C33.1,48.6,31.3,48.3,29.6,48 M35.2,49.3l0.5-3.5l-0.2,0c-1.9-0.3-3.7-0.6-5.5-0.9l-0.2,0
	l-0.7,3.5l0.2,0c1.8,0.3,3.7,0.7,5.6,0.9L35.2,49.3 M17.1,44.7c-1.8-0.6-3.4-1.3-5-2l1.1-2.5c1.4,0.7,3,1.3,4.7,1.9L17.1,44.7
	 M13.2,39.8L13,39.7l-1.5,3.2l0.2,0.1c1.7,0.8,3.5,1.5,5.4,2.2l0.2,0.1l1.2-3.4l-0.2-0.1C16.5,41.2,14.8,40.5,13.2,39.8 M8.6,41
	c-1.8-1-3.3-2.1-4.5-3.2l1.8-2c1.1,1,2.4,1.9,4,2.8L8.6,41 M6.1,35.3l-0.2-0.1l-2.4,2.6l0.2,0.1c1.3,1.2,3,2.4,4.9,3.5l0.2,0.1
	l1.8-3.1l-0.2-0.1C8.6,37.4,7.2,36.3,6.1,35.3 M86.3,25.9l1.4,0.1c1.1,0.1,2.2,0.2,3.3,0.3L90.8,29c-1.1-0.1-2.3-0.2-3.5-0.3
	l-1.3-0.1L86.3,25.9 M91,29.4l0.2,0l0.3-3.5l-0.2,0c-1.2-0.1-2.3-0.2-3.5-0.3l-1.8-0.1L85.6,29l1.7,0.1C88.6,29.3,89.8,29.4,91,29.4
	 M102.8,27.4c1.8,0.2,3.4,0.5,4.8,0.7l-0.5,2.7c-1.4-0.3-2.9-0.5-4.6-0.7L102.8,27.4 M107.2,31.3l0.2,0l0.7-3.5l-0.2,0
	c-1.5-0.3-3.2-0.5-5.2-0.8l-0.2,0l-0.4,3.5l0.2,0C104.1,30.8,105.8,31,107.2,31.3 M78,25.3c1.4,0.1,3,0.3,4.7,0.4l-0.2,2.7
	c-1.8-0.1-3.3-0.3-4.8-0.4L78,25.3 M82.7,28.8l0.2,0l0.3-3.5l-0.2,0c-2-0.2-3.6-0.3-5.1-0.4l-0.2,0l-0.3,3.5l0.2,0
	C79.1,28.5,80.8,28.6,82.7,28.8 M53.6,22c1.5,0.3,3.1,0.6,4.6,0.9l-0.5,2.7c-1.6-0.3-3.2-0.6-4.7-0.9L53.6,22 M57.9,26l0.2,0
	l0.6-3.5l-0.2,0c-1.7-0.3-3.4-0.6-5-0.9l-0.2,0L52.6,25l0.2,0C54.5,25.4,56.2,25.7,57.9,26 M94.5,26.6c1.8,0.2,3.4,0.3,4.8,0.4
	L99,29.7c-1.4-0.1-2.9-0.3-4.7-0.4L94.5,26.6 M99.2,30.2l0.2,0l0.4-3.5l-0.2,0c-1.5-0.2-3.2-0.3-5.2-0.5l-0.2,0l-0.3,3.5l0.2,0
	C96,29.9,97.7,30,99.2,30.2 M61.7,23.4c1.5,0.2,3.1,0.4,4.7,0.6L66,26.7c-1.6-0.2-3.2-0.4-4.7-0.7L61.7,23.4 M66.2,27.2l0.2,0
	l0.4-3.5l-0.2,0c-1.8-0.2-3.5-0.5-5.1-0.7l-0.2,0l-0.5,3.5l0.2,0C62.7,26.7,64.4,27,66.2,27.2 M111.1,29c2,0.5,3.6,1.2,4.8,1.9
	l-1.5,2.3c-1-0.6-2.3-1.1-4-1.6L111.1,29 M114.4,33.6l0.2,0.1l1.9-3l-0.2-0.1c-1.3-0.9-3-1.6-5.3-2.2l-0.2-0.1l-0.9,3.4l0.2,0.1
	C112,32.4,113.4,33,114.4,33.6 M69.8,24.5c1.5,0.2,3.1,0.3,4.7,0.5l-0.3,2.7c-1.7-0.2-3.2-0.3-4.8-0.5L69.8,24.5 M74.5,28.1l0.2,0
	l0.3-3.5l-0.2,0c-1.8-0.2-3.5-0.3-5.1-0.5l-0.2,0l-0.4,3.5l0.2,0C70.9,27.7,72.6,27.9,74.5,28.1 M37.7,17.9c1.5,0.5,3,0.9,4.5,1.3
	l-0.7,2.6c-1.6-0.4-3.1-0.9-4.6-1.4L37.7,17.9 M41.6,22.3l0.2,0.1l1-3.4l-0.2-0.1c-1.7-0.5-3.3-1-4.9-1.5l-0.2-0.1l-1.1,3.4l0.2,0.1
	C38.2,21.4,39.9,21.9,41.6,22.3 M22.5,11.9c1.4,0.7,2.8,1.3,4.3,2l-1.1,2.5c-1.5-0.7-3-1.3-4.4-2L22.5,11.9 M25.8,16.8l0.2,0.1
	l1.4-3.3l-0.2-0.1c-1.6-0.7-3.1-1.4-4.6-2.1l-0.2-0.1l-1.6,3.2l0.2,0.1C22.5,15.4,24.1,16.1,25.8,16.8 M45.6,20.2
	c1.5,0.4,3,0.7,4.6,1.1l-0.6,2.7c-1.6-0.3-3.1-0.7-4.7-1.1L45.6,20.2 M49.7,24.4l0.2,0l0.8-3.5l-0.2,0c-1.7-0.4-3.3-0.8-5-1.2
	l-0.2-0.1l-0.9,3.4l0.2,0.1C46.3,23.6,48,24,49.7,24.4 M30,15.2c1.4,0.6,2.9,1.1,4.4,1.6l-0.9,2.6c-1.5-0.5-3.1-1.1-4.5-1.7L30,15.2
	 M33.6,19.9l0.2,0.1l1.2-3.3l-0.2-0.1c-1.6-0.6-3.2-1.2-4.8-1.8l-0.2-0.1L28.5,18l0.2,0.1C30.3,18.7,31.9,19.3,33.6,19.9 M15.5,7.9
	c1.2,0.8,2.5,1.6,4,2.4l-1.3,2.4c-1.5-0.8-2.9-1.7-4.2-2.5L15.5,7.9 M18.2,13.2l0.2,0.1l1.7-3.1l-0.2-0.1c-1.6-0.9-3-1.7-4.3-2.6
	l-0.2-0.1l-1.9,3l0.2,0.1C15,11.3,16.5,12.3,18.2,13.2 M30.5,115.2c-1.7-0.2-3.2-0.4-4.6-0.6l0.4-2.7c1.4,0.2,2.9,0.4,4.5,0.6
	L30.5,115.2 M26.1,111.5l-0.2,0l-0.5,3.5l0.2,0c1.5,0.2,3.2,0.4,5,0.6l0.2,0l0.4-3.5l-0.2,0C29.2,111.9,27.6,111.7,26.1,111.5
	 M100.5,128.6c-1.3-0.7-2.6-1.3-4-2l1.1-2.5c1.5,0.7,2.9,1.4,4.2,2.1L100.5,128.6 M97.6,123.6l-0.2-0.1l-1.4,3.2l0.2,0.1
	c1.5,0.7,3,1.4,4.4,2.1l0.2,0.1l1.7-3.1l-0.2-0.1C100.8,125.1,99.2,124.4,97.6,123.6 M22.4,114.1c-1.7-0.3-3.2-0.6-4.6-0.9l0.6-2.6
	c1.3,0.3,2.8,0.6,4.4,0.9L22.4,114.1 M18.4,110l-0.2,0l-0.8,3.4l0.2,0c1.5,0.4,3.1,0.7,5,1l0.2,0l0.6-3.5l-0.2,0
	C21.3,110.7,19.8,110.4,18.4,110 M62.5,118.4c-1.4-0.2-2.9-0.3-4.6-0.5l0.3-2.7c1.6,0.2,3.1,0.3,4.6,0.5L62.5,118.4 M58,114.7
	l-0.2,0l-0.4,3.5l0.2,0c1.8,0.2,3.4,0.4,5,0.6l0.2,0l0.4-3.5l-0.2,0C61.4,115.1,59.8,114.9,58,114.7 M70.4,119.4
	c-1.3-0.2-2.7-0.4-4-0.6l-0.5-0.1l0.3-2.7l0.5,0.1c1.4,0.2,2.8,0.4,4.1,0.6L70.4,119.4 M66.8,115.8l-0.9-0.1l-0.5,3.5l0.9,0.1
	c1.4,0.2,2.8,0.4,4.2,0.6l0.2,0l0.6-3.5l-0.2,0C69.7,116.2,68.2,116,66.8,115.8 M38.5,116c-1.7-0.2-3.2-0.3-4.6-0.5l0.3-2.7
	c1.4,0.1,2.9,0.3,4.6,0.5L38.5,116 M34,112.4l-0.2,0l-0.4,3.5l0.2,0c1.5,0.2,3.1,0.3,5,0.5l0.2,0l0.3-3.5l-0.2,0
	C37.1,112.7,35.5,112.6,34,112.4 M107.1,132.8c-1.1-0.9-2.3-1.7-3.6-2.5l1.4-2.3c1.4,0.9,2.6,1.7,3.8,2.7L107.1,132.8 M104.9,127.5
	l-0.2-0.1l-1.9,3l0.2,0.1c1.4,0.9,2.7,1.8,3.9,2.8l0.2,0.1l2.1-2.8l-0.2-0.1C107.8,129.4,106.5,128.4,104.9,127.5 M46.5,116.8
	l-1.7-0.2c-1-0.1-1.9-0.2-2.9-0.3l0.3-2.7c0.9,0.1,1.9,0.2,2.9,0.3l1.7,0.2L46.5,116.8 M42,113.2l-0.2,0l-0.3,3.5l0.2,0
	c1,0.1,2,0.2,3.1,0.3l2.1,0.2l0.3-3.5l-2.1-0.2C44,113.4,43,113.3,42,113.2 M93.4,125.3c-1.4-0.5-2.8-1-4.3-1.5l0.8-2.6
	c1.5,0.5,3,1,4.4,1.6L93.4,125.3 M89.9,120.8l-0.2-0.1l-1.1,3.4l0.2,0.1c1.6,0.5,3.2,1.1,4.6,1.6l0.2,0.1l1.3-3.3l-0.2-0.1
	C93.2,121.9,91.6,121.3,89.9,120.8 M54.5,117.5c-1.4-0.1-2.9-0.3-4.6-0.4l0.3-2.7c1.7,0.2,3.2,0.3,4.6,0.4L54.5,117.5 M50,113.9
	l-0.2,0l-0.3,3.5l0.2,0c1.8,0.2,3.5,0.3,5,0.5l0.2,0l0.4-3.5l-0.2,0C53.5,114.3,51.9,114.1,50,113.9 M85.9,122.8
	c-1.4-0.4-2.9-0.8-4.4-1.2l0.6-2.6c1.5,0.4,3.1,0.8,4.5,1.2L85.9,122.8 M82,118.5l-0.2,0l-0.8,3.4l0.2,0c1.6,0.4,3.2,0.8,4.8,1.3
	l0.2,0.1l1-3.4l-0.2-0.1C85.4,119.4,83.7,119,82,118.5 M78.2,120.9c-1.4-0.3-2.9-0.6-4.5-0.9l0.5-2.7c1.6,0.3,3.1,0.6,4.6,0.9
	L78.2,120.9 M74.1,116.9l-0.2,0l-0.6,3.5l0.2,0c1.7,0.3,3.3,0.6,4.9,1l0.2,0l0.7-3.5l-0.2,0C77.4,117.5,75.8,117.2,74.1,116.9
	 M109.3,99c1.4,0.7,2.8,1.4,4,2.1l-1.4,2.3c-1.2-0.7-2.4-1.3-3.7-1.9L109.3,99 M111.9,103.9l0.2,0.1l1.8-3l-0.2-0.1
	c-1.4-0.8-2.9-1.6-4.4-2.3l-0.2-0.1l-1.4,3.2l0.2,0.1C109.3,102.4,110.6,103.1,111.9,103.9 M101.9,96.3c1.5,0.4,2.9,0.9,4.3,1.4
	l-1,2.5c-1.3-0.5-2.6-0.9-4.1-1.4L101.9,96.3 M105.3,100.7l0.2,0.1l1.3-3.3l-0.2-0.1c-1.5-0.6-3-1.1-4.7-1.6l-0.2-0.1l-1,3.4
	l0.2,0.1C102.4,99.7,103.9,100.2,105.3,100.7 M94.3,94.4c1.5,0.3,3,0.6,4.4,1L98,98c-1.3-0.3-2.8-0.6-4.2-0.9L94.3,94.4 M98.1,98.5
	l0.2,0.1l0.9-3.4L99,95c-1.5-0.4-3.1-0.7-4.8-1.1l-0.2,0l-0.7,3.5l0.2,0C95.1,97.8,96.7,98.1,98.1,98.5 M116.2,103
	c1.2,0.9,2.2,1.6,3.2,2.7l-1.7,2.2c-0.9-1-2-1.9-3.1-2.7L116.2,103 M117.5,108.3l0.2,0.2l2.2-2.9l-0.1-0.1c-1.1-1.2-2.1-1.9-3.4-2.9
	l-0.3-0.2l-2.1,2.9l0.2,0.1C115.4,106.3,116.5,107.3,117.5,108.3"/>
</svg>
