<?xml version="1.0" encoding="utf-8"?>
<!-- Generator: Adobe Illustrator 25.0.1, SVG Export Plug-In . SVG Version: 6.00 Build 0)  -->
<svg version="1.1" id="Layer_1" xmlns="http://www.w3.org/2000/svg" xmlns:xlink="http://www.w3.org/1999/xlink" x="0px" y="0px"
	 viewBox="0 0 163.8 155.8" style="enable-background:new 0 0 163.8 155.8;" xml:space="preserve">
<style type="text/css">
	.Drop_x0020_Shadow{fill:none;}
	.Outer_x0020_Glow_x0020_5_x0020_pt{fill:none;}
	.Blue_x0020_Neon{fill:none;stroke:#8AACDA;stroke-width:7;stroke-linecap:round;stroke-linejoin:round;}
	.Chrome_x0020_Highlight{fill:url(#SVGID_1_);stroke:#FFFFFF;stroke-width:0.3629;stroke-miterlimit:1;}
	.Jive_GS{fill:#FFDD00;}
	.Alyssa_GS{fill:#A6D0E4;}
	.st0{fill:none;}
	.st1{fill:#030303;stroke:#030303;stroke-width:2.026713e-02;}
	.st2{fill-rule:evenodd;clip-rule:evenodd;}
	.st3{fill:#0A0B09;}
</style>
<linearGradient id="SVGID_1_" gradientUnits="userSpaceOnUse" x1="-241.4866" y1="-257.8981" x2="-241.4866" y2="-258.8981">
	<stop  offset="0" style="stop-color:#656565"/>
	<stop  offset="0.618" style="stop-color:#1B1B1B"/>
	<stop  offset="0.6292" style="stop-color:#545454"/>
	<stop  offset="0.9831" style="stop-color:#3E3E3E"/>
</linearGradient>
<path id="path2987" class="st2" d="M0,59.6l50.8,36.7l-19.4,59.6l12.3-9l-3.8-1.2l2.8-8.8l10.2,3.3l29-21.2l50.6,36.9L113,96.2
	l50.7-36.8l-62.7,0.2L90,25.4l0,0.1l-10.3-3.3l2.8-8.8l4,1.3L81.8,0L62.7,59.6L0,59.6z M45.6,127.9l2.8-8.8l10.3,3.3l-2.8,8.8
	L45.6,127.9L45.6,127.9z M51.3,110.3l2.8-8.8l10.3,3.3l-2.8,8.8L51.3,110.3L51.3,110.3z M57,92.7l2.8-8.8l10.3,3.3L67.3,96L57,92.7
	L57,92.7z M62.7,75.1l2.8-8.8l10.3,3.3l-2.8,8.8L62.7,75.1z M68.4,57.4l2.8-8.8l10.3,3.3l-2.8,8.8L68.4,57.4z M74,39.8l2.8-8.8
	l10.3,3.3l-2.8,8.8L74,39.8L74,39.8z"/>
</svg>
